<svg version="1" xmlns="http://www.w3.org/2000/svg" width="933.333" height="933.333" viewBox="0 0 700.000000 700.000000"><path d="M319.5 63.1c-3.3.4-8.7 1-12 1.3-15.4 1.5-37.6 6.7-55.2 12.7-52.2 18-97.2 51.3-132.1 97.6-17.4 23.1-32.6 52.4-42.3 81.5-4.4 13.2-4.4 13.4-2.6 11.6.8-.7 1.2-2.2 1-3.3-.4-1.5-.2-1.7.5-.6.8 1.1 1.1.9 1.7-1 1.1-4.1 4.6-13.2 6.7-17.4 1-2.2 1.6-3.1 1.3-2-.4 1.1-2.5 7.4-4.7 14s-5 16.5-6.3 22c-2.4 9.9-2.9 12.3-4 20-.4 2.2-1.1 6.7-1.6 10-1.4 8.5-2.1 38.7-.9 40.5.7 1.2.9 1.1.8-.5-.1-1.8.3-6.9 1.7-21.5.9-8.9 1.7-15.6 3-24 2.1-13.1 2.5-15.1 4.1-21 .8-3 1.7-6.5 1.9-7.6 1.6-7.5 11.1-35.2 12.7-36.9.5-.6-.4 2.8-2.1 7.5-3.7 10.7-8.7 27.3-9.7 32.5-.4 2.2-.9 4.4-1.1 5-.9 2.6-4.2 22.2-4.8 28.2-.4 3.7-.8 7.9-1 9.2-.7 4.3-.8 28.1-.2 28.8.4.3.8-2 .8-5.3.9-44.6 12.2-89.6 31.3-124.9 9.3-17.2 10.8-19.7 18.8-30.7 13.2-18.3 19.6-25.4 39.4-43.6 25.2-23.1 57.2-42 90.4-53.4 22-7.5 54.1-13.7 72-14 39.9-.5 69.4 4.5 105.2 18 29.2 11 65.3 34.5 86.6 56.2 3.5 3.6 6.8 6.4 7.2 6.3 1.9-.5 26.6 33.1 35.5 48.2 16.1 27.2 28.1 59.6 32.5 87.5.6 4.1 1.4 8.6 1.6 10 .2 1.4.7 5 1 8 .4 3 .8 5.7 1 5.9.2.2-.2 1.1-.9 1.9-1 1.3-.9 1.4.2.7 1.1-.6 1.3-.3.7 1.8-.4 1.6-.1 2.7.7 3 .9.4.9.6 0 .6-.7.1-1.3 1.1-1.2 2.3 0 2.2.1 2.2.9.3.7-1.6.9-1.7.9-.3.1.9-.3 2-.9 2.3-.5.3-.9 2.8-.8 5.5.1 2.7.6 4.6 1.1 4.3.5-.3.4.4-.2 1.5-.6 1.1-1.1 2.3-1.1 2.7 0 .3.5.3 1.1-.1.8-.5.8-.1 0 1.3-.7 1.4-.7 2.4.2 3.3.7.7.8 1 .2.7-.6-.3-1.1 3.7-1.2 11.1-.2 8.1-.6 11.8-1.5 12.3-1.1.7-1.1.9 0 .9.7 0 1 .5.7 1-.4.6-.8 2-1 3.3-.8 4.1-1.6 10.2-1.7 11.7 0 .8-.4 3.3-.9 5.5-.4 2.2-1 5.1-1.2 6.5-1.2 6.3-5.1 20-9.2 32.2-5.1 15.4-18 42.2-19.7 41.2-.7-.4-.8-.3-.4.4.4.6.2 2.2-.5 3.4-1.5 2.9-15 23.1-15.8 23.8-.3.3-1.8 2.3-3.2 4.5-1.4 2.2-6.6 8.4-11.5 13.9-4.9 5.4-9.6 10.8-10.4 12-2.4 3.4 8.7-6.1 18.7-16 9.5-9.4 10-8.7 1.8 2.5-15.2 20.7-43.3 45.1-70.3 61.1-3.9 2.4-7.2 4.5-7.2 4.6 0 .2 1.2-.1 2.8-.7 4.8-1.8 1.1.7-10.3 7-19 10.4-16.6 10.3 4.5-.3 28-14.1 47.6-28.2 69.1-49.6 16.2-16.1 28-30.6 37.7-46.2 4.4-7.1 5-8.4 3-7.2-.7.4-.8.3-.4-.5.4-.6 1.1-.9 1.5-.7 1.1.7 4.3-5.3 3.5-6.7-.4-.6-.4-.9.1-.5.4.4 1.4 0 2.1-1 1.7-2.1 1.8-3.6.2-2.6-.7.4-.8.3-.4-.5.4-.6 1.2-.8 1.8-.5.8.5.9.1.5-1-.4-.9-.3-1.5.2-1.2.5.3 1.2-.1 1.5-1 .3-.8.2-1.2-.4-.9-.6.3-.7-.1-.4-.9.3-.9 1.1-1.3 1.6-1 .6.4.9.1.6-.7-.3-.8.2-2 1.1-2.7.9-.8 1-1.1.4-.7-.9.4-1.1.1-.7-.9.3-.9 1-1.6 1.6-1.6.5 0 .6-.5.2-1.2-.4-.6.1-1.7 1.1-2.5 1.1-.7 1.5-1.3 1-1.3-.4 0 0-1 1.1-2.2 1-1.2 1.4-1.8.7-1.5-.8.5-.9 0 0-2.2.6-1.7 1.4-2.8 1.8-2.5.4.2.7-.2.6-.9-.1-3 .4-4.8 1.1-4.3.4.2.8-.3.8-1.2.1-.9 2.2-8 4.7-15.7 4.1-12.8 5.9-19.2 5.8-21.2 0-.5.7-1.8 1.5-3.1 1-1.4 1.1-2.2.3-2.2s-.8-.4.1-1.5c.6-.8.9-1.9.5-2.5-.3-.5-.2-1 .3-1s.8-1.4.7-3c-.1-1.7.1-3 .5-3 .3 0 .7-1.2.7-2.8 0-1.5.4-4.3.8-6.2.3-1.9.8-5.1 1-7 2-20.3 2.5-32.3 1.4-33.7-.7-.7-.6-1.4.2-1.9s.9-.3.4.6c-.5.9-.4 1.1.3.6.9-.5.8-1.2-.1-2.6-.9-1.6-.9-2.4.1-4.1.8-1.2.9-1.8.3-1.5-1.3.8-1.9-4.1-.9-7.8.4-1.6.9-4.4 1-6.3.1-1.8.6-3.3 1.1-3.3.5 0 .7 1.2.6 2.8-.2 1.5.1 3.3.5 4.1.6 1 .5 1.2-.2.7-1.3-.8-2.7 3.5-1.9 5.6.3.7.6 0 .6-1.6.1-1.6.4-2.6.8-2.2 1.3 1.3 1.3 18 0 18.8-.8.5-.8.8-.1.8.7 0 1 1.9.8 5.2-.2 2.9-.5 9.3-.8 14.3-.6 10.3-2.8 26.4-5.1 38-.9 4.4-1.8 8.9-2 10-.2 1.1-.7 3.1-1 4.5-.4 1.4-.7 3.3-.7 4.3.1.9-.3 1.5-.8 1.2-.5-.3-.7.6-.4 2 .2 1.4 0 2.5-.6 2.5s-.9.4-.5 1c.9 1.5-3.5 14.1-4.8 13.3-.6-.4-.8 0-.4 1 .7 2-4.1 15.7-5.5 15.7-.5 0-.6.4-.3 1 .3.5-.4 2.6-1.5 4.7-1.2 2.1-1.9 3-1.6 2 .4-1.1.2-1.6-.5-1.1-.6.3-.9 1.5-.6 2.5.3 1.1 0 1.9-.6 1.9s-.7.3-.4.7c.4.3-.1 1.2-1.1 2-.9.8-1.1 1.2-.4.8 1-.5 1-.1.1 1.9-.7 1.4-1.5 2.3-1.9 2.1-.5-.3-1.1.2-1.4 1.1-.3.9-.2 1.2.5.9.6-.4-.1 1.6-1.5 4.3-1.4 2.8-3 5.3-3.5 5.7-.6.3.2-1.5 1.5-4 1.4-2.5 2.4-4.5 2.1-4.5-.3 0-2 2.6-3.7 5.7-1.8 3.2-4 6.9-4.8 8.3l-1.4 2.5 2.1-2.5c1.1-1.4 2.1-2.9 2.1-3.4s.3-.7.6-.3c1 1-12.6 20.8-13.8 20.1-.7-.4-.8-.2-.4.5 2.3 3.6-35.8 44.8-51.8 56.1-1.2.8-3 2.3-4.1 3.3-1.1 1-7.8 5.7-14.9 10.4-19.3 12.9-44.4 25.2-65.6 32.3-23.9 7.9-56.3 13.7-77.7 13.9-4 .1-7.3.5-7.3 1.1 0 .5 1.2.8 2.8.5 1.5-.2 8.3-.7 15.2-1 13.4-.6 14.8-.7 25.5-2.4 9.9-1.5 23.3-4.3 32.5-6.7 1.4-.4 2.3-.4 2-.1-1 1-23.5 6.7-32.5 8.2-1.6.3-4.1.7-5.5 1-1.4.3-4.7.7-7.5 1.1-2.7.3-5.7.8-6.6.9-.8.2-5.5.6-10.5 1-14.4 1.1-20.2 2.4-11.3 2.6 17.6.4 39.4-1.8 55.9-5.7 1.4-.3 3.6-.8 5-1 2.5-.5 12-3.2 22-6.4 33.2-10.7 68.2-30.2 95.6-53.5 9.4-8 27.3-26.3 34.2-35 3.5-4.4 7.2-9 8.2-10.1 1-1.2 4.1-5.5 6.9-9.7 12.3-18.2 21.7-35.9 28.6-53.7 2-5.2 4.1-10.4 4.6-11.5 1.9-4.3 8.1-27.6 10.3-39 4.4-22.3 5.1-29.9 5.1-58 0-24.3-1-37.5-4-53-.3-1.7-1-5.5-1.6-8.5-4.4-22.9-12.8-48-22.7-67.6-13.5-26.6-31.5-51-54.2-73.4-38.7-38.4-83.3-63-137.5-75.9-7.1-1.7-13.3-2.7-27-4.6-2.3-.3-5.2-.8-6.5-1.1-4-.8-41.9-1.1-48.5-.3zm66 5.9c2.7.7 2.7.8.5.8-1.4 0-3.8-.4-5.5-.8-2.7-.7-2.7-.8-.5-.8 1.4 0 3.9.4 5.5.8zm14.8 3c14 3.2 37.6 10.9 40.2 13.2.6.5-2.8-.5-7.5-2.2-11.8-4.4-12.6-4.7-29.5-9-16.3-4.2-18.1-5.2-3.2-2zM445 87c.8.5 1.1 1 .5 1-.5 0-1.7-.5-2.5-1s-1-1-.5-1c.6 0 1.7.5 2.5 1zm4.5 2.8c-.3.3-1.1 0-1.8-.7-.9-1-.8-1.1.6-.5 1 .3 1.5.9 1.2 1.2zm4 1.2c.3.6-.1.7-.9.4-1.8-.7-2.1-1.4-.7-1.4.6 0 1.3.4 1.6 1zm8.5 4.6c0 .2-.9 0-2-.6s-2-1.3-2-1.6c0-.2.9 0 2 .6s2 1.3 2 1.6zm3.5 1.4c.3.6-.1.7-.9.4-1.8-.7-2.1-1.4-.7-1.4.6 0 1.3.4 1.6 1zm7.5 4.6c0 .2-.9 0-2-.6s-2-1.3-2-1.6c0-.2.9 0 2 .6s2 1.3 2 1.6zm7 4c0 .2-1.3-.2-3-1.1-1.6-.9-3-1.8-3-2.1 0-.2 1.4.2 3 1.1 1.7.9 3 1.8 3 2.1zm16 10.6c12.9 9.3 27 20.8 27 22.1 0 .4-1.7-.8-3.7-2.7-2.1-1.9-5.1-4.5-6.8-5.7-1.6-1.3-3.2-2.6-3.5-2.9-.9-1-15.2-11.5-21.7-15.9-3.5-2.3-6.3-4.4-6.3-4.7 0-.9 3.3 1.3 15 9.8zm38 32.9c0 .4-2.2-1.6-5-4.4-2.7-2.8-5-5.3-5-5.6 0-.3 2.3 1.7 5 4.4 2.8 2.7 5 5.2 5 5.6zm30.1 36.6c1.3 1.6 1.2 1.7-.3.4-1-.7-1.8-1.5-1.8-1.7 0-.8.8-.3 2.1 1.3zm7.7 12.4c6 9.9 10.9 19.2 15.7 29.9 4.7 10.4 14 36.8 13.2 37.6-.2.2-1.4-2.8-2.7-6.8-4.9-15.9-16.5-42.4-23.5-53.8-3.3-5.4-7.5-13-7.5-13.7 0-1 .4-.3 4.8 6.8zm29.9 71.1c-.3.8-.6.5-.6-.6-.1-1.1.2-1.7.5-1.3.3.3.4 1.2.1 1.9zm2.7 9.7c-.7.8-1.1-.4-1.7-4.4l-.6-4 1.3 4c.7 2.2 1.2 4.2 1 4.4zm.3 3.3c-.3.8-.6.5-.6-.6-.1-1.1.2-1.7.5-1.3.3.3.4 1.2.1 1.9zm1 4c-.3.8-.6.5-.6-.6-.1-1.1.2-1.7.5-1.3.3.3.4 1.2.1 1.9zm4.7-.6c.3.8.2 1.2-.4.9-.6-.3-1-1-1-1.6 0-1.4.7-1.1 1.4.7zm1.5 7.6c-.1 2.2.7 7.1 1.6 9.5.2.7-.2 1-.8.7-.7-.2-1.3-1.9-1.3-3.7-.1-1.7-.2-3.7-.4-4.2-.4-1.5-.1-4.5.5-4.5.3 0 .4 1 .4 2.2zm-3.1 7.3c-.3.3-.9-.2-1.2-1.2-.6-1.4-.5-1.5.5-.6.7.7 1 1.5.7 1.8zm4.8 6.7c-.1 1.3.2 3.1.7 4.2.6 1.3.6 1.6-.2 1.2-1.3-.8-1.8.4-2.4 5.7-.3 2.1-.7 4.1-1 4.4-.8.8.4-10.1 1.3-11.2.4-.6.5-2.2.3-3.8-.2-1.5 0-2.7.5-2.7s.8 1 .8 2.2zm-2.6 1.4c0 .8-.4 1.2-1 .9-.5-.3-1-1.3-1-2.1s.5-1.2 1-.9c.6.3 1 1.3 1 2.1zm6.3 86.4c-.3 1.2-.8 1.9-1.1 1.6-.5-.6.5-3.6 1.2-3.6.2 0 .2.9-.1 2zm-1.8 10.2c-.4 2.4-1.1 5-1.6 5.8-1 1.6-.9.7.6-6.3 1-5.1 1.8-4.7 1 .5zm-2.1 9.3c-.4.8-.8 1.5-1 1.5-.2 0-.4-.7-.4-1.5s.4-1.5 1-1.5c.5 0 .7.7.4 1.5zm-2.1 7.1c-.8 2.5-1.7 4.4-1.8 4.2-.6-.6 1.9-8.8 2.6-8.8.4 0 .1 2-.8 4.6zm-29.8 68.1c-13.5 23.4-35.8 51-53.5 66.3-1.4 1.2-3.8 3.4-5.5 4.8-7.1 6.4-19 15.4-28.2 21.4-17.3 11.3-16.9 10.7 1.2-2.3 19.1-13.6 24.6-18.2 41.1-34.4s37.6-43.4 45.3-58.3c.6-1.2 1.4-2.2 1.7-2.2.3 0-.6 2.1-2.1 4.7z"/><path d="M341.5 227.2l-2 3 4.2 4.4c8.6 9.3 10.6 18.9 5.9 28.7-1.3 2.9-3.7 6.6-5.3 8.3-7.1 7.8-10.3 12.1-13 17.3-2.3 4.7-2.8 6.8-2.8 13.7 0 7.2.4 8.8 3.3 14.4 1.8 3.5 3.1 6.5 2.9 6.6-.2.2-25.7.4-56.8.4-42.9.1-57.8.4-62 1.4-14.6 3.4-25.9 15.2-28.6 30.1-.3 1.6-.6 20.5-.6 42 0 33.4.2 39.8 1.6 44.4 3.8 12.4 12.4 21.2 25.1 25.4 4.5 1.6 15.6 1.7 130.5 1.4l125.6-.2 6.2-2.9c10.6-4.8 19.1-15.7 21.2-26.9 1.1-6.3 1.2-76.9 0-83.2-2.2-12-10.5-22.5-21.9-27.9l-6.5-3.1-61-.3-61-.2-3.3-3.8c-10.6-12.2-9.7-24.9 2.8-38.2 14.6-15.5 17.8-28.6 10.5-43-2.5-4.9-8.7-12.5-11.4-13.9-1.3-.7-2.1-.2-3.6 2.1zm-109.9 114c1.1 1 1.1 1.8.1 3.8-1.2 2.3-1.8 2.5-9.7 2.8-4.7.2-9.5 0-10.7-.3-3.1-.7-4.1-4.5-1.6-6.4 2.5-2.1 19.9-2 21.9.1zm28-.1c1.8 1.5 1.8 3.4-.2 5.3-1.2 1.2-3.7 1.6-10.8 1.6-7.9 0-9.6-.3-11-1.9-2.2-2.4-.7-5.8 2.6-6.3 5-.7 18 .2 19.4 1.3zm28 0c1.7 1.4 1.8 4.1.2 5.7-1.6 1.6-20 1.6-21.6 0-.7-.7-1.2-2.2-1.2-3.5 0-2.2.9-2.7 6.4-3.5 4.4-.7 14.9.2 16.2 1.3zm28.2-.6c1.5.6 1.6 4.7 0 6.3-.8.8-4.7 1.2-11 1.2-9.6 0-9.9-.1-11-2.6-1.1-2.3-1-2.9.8-4.3 1.6-1.3 3.9-1.6 11-1.4 4.9.2 9.5.5 10.2.8zm28.9.7c1.5 1.2.8 4.8-1.1 6-.6.4-5.1.8-10.1.8-4.9 0-9.5-.4-10.1-.8-1.7-1.1-2.3-5-1-6.1 2.4-2 19.9-1.9 22.3.1zm28.2.3c1.2 1.1 1.2 1.9.3 4-1.1 2.4-1.4 2.5-11.1 2.5-10.8 0-12.8-.9-11.7-5.4.5-2 1.3-2.5 4.4-2.8 7.5-.6 16.7.2 18.1 1.7zm26.9-1.1c1.4.5 2.2 1.5 2.2 3 0 3.9-1.8 4.6-12.2 4.6-9.5 0-9.9-.1-11-2.5-1.4-3.1.2-5.2 4-5.7 4.5-.5 14.6-.2 17 .6zm29.3.3c1.9 1.9 1.8 5.3-.1 6.3-2.2 1.2-18.9 1.3-20.8.2-1.7-1.2-2.3-4.9-.9-6 .7-.6 2.3-1.2 3.7-1.4 4.8-.6 17.2 0 18.1.9zm27.6 1c1.7 2.2 1.6 2.8-.3 4.7-1.2 1.2-3.7 1.6-10.9 1.6s-9.7-.4-10.9-1.6c-1.9-1.9-2-2.5-.3-4.6 1.6-2.1 3.5-2.4 13.2-2.1 6.2.2 8.3.6 9.2 2zm-230.4 20.4c1.7 2.1 2.2 6.4 1.1 9.4-1.5 3.8-10.1 5.7-16 3.5-8.6-3.3-6.4-15.3 2.9-16.2 5-.5 10 .9 12 3.3zm27 0c2 2.4 2.2 7.7.4 10-4 5.2-15.4 5.2-19.4 0-1.8-2.4-1.5-7.6.5-10.2 3.5-4.3 14.8-4.2 18.5.2zm23.4-1.9c4.7 2.3 5.2 9.6.9 13.4-3 2.6-12.3 3-15.6.7-6.5-4.6-3.8-14.2 4.5-15.5 2.9-.5 7.7.2 10.2 1.4zm28.3 1.3c3.8 3.5 2.7 10.6-2 13-5.2 2.7-13.8 1.5-16.6-2.3-1.9-2.5-1.7-7.3.5-10.1 3.2-4.2 13.8-4.5 18.1-.6zm28.2.2c2.8 2.5 2.4 8.9-.7 11.7-4.2 3.9-14.8 3.1-18.2-1.3-1.8-2.4-1.5-7.6.6-10.2 3.3-4.1 13.9-4.2 18.3-.2zm27 .3c2.1 2.5 2.3 7.7.5 10.1-3.9 5.1-15.5 5.2-19.3.1-1.9-2.4-1.7-7.6.4-10.2 3.5-4.3 14.9-4.3 18.4 0zm23.5-1.8c2.5 1.2 4.4 5.7 3.8 9-.9 4.3-4.1 6.3-10.5 6.5-7.7.2-11.4-2.4-11.4-8 0-7.9 9.3-11.7 18.1-7.5zm28.2 1.2c4.3 3.9 2.6 11.5-2.9 13.5-11.6 4-21.6-4.4-15.2-12.7 3.2-4.2 13.9-4.6 18.1-.8zm26-1c2.4 1.5 3.8 6 2.9 9.3-1.9 7.2-15.6 8.8-20.5 2.4-1.8-2.3-1.5-7.3.6-10 2.7-3.6 12.4-4.5 17-1.7zm40.8 1.3c1.4 2.1 1.9 5.3 2.1 14.6.5 15.4-.1 18.3-3.8 20.2-4.1 2.1-11.2 1.9-14-.3-2.4-2-2.8-3.4-2.9-12-.1-2.9-.5-5.1-1-4.8-4.4 2.8-8.4-10.2-5.1-16.5 2-3.6 2.7-3.9 13.2-3.9 9.5 0 9.8.1 11.5 2.7zm-252.2 23.8c3.4 3.3 3.4 8.7 0 12.1-2.2 2.2-3.3 2.5-8.5 2.3-7.4-.3-11-3.1-11-8.6 0-5.4 3.8-8.3 11.2-8.3 4.9 0 6.3.4 8.3 2.5zm26.3-.5c4.5 4.3 3.8 11.1-1.5 13.9-2.7 1.4-10.8 1.4-13.4.1-5-2.7-5.7-10.5-1.1-14 3.5-2.8 13-2.8 16 0zm25.4 0c3.1 2.4 3.9 5.9 2.2 9.8-1.7 4.1-4.4 5.3-11 5.1-4.3-.2-6-.8-7.9-2.7-3.4-3.4-3.3-8.1.1-11.6 2.3-2.2 3.5-2.6 8.4-2.6 4.2 0 6.4.5 8.2 2zm25.3-1.4c2 .8 4.5 5.6 4.5 8.7 0 1.3-1.2 3.6-2.6 5.1-2.2 2.1-3.6 2.6-7.5 2.6-6.3 0-9.5-1.3-11.3-4.7-3.4-6.6 1.2-12.3 10-12.3 2.9 0 6 .3 6.9.6zm28.6.5c3 1.6 4.9 6.7 3.7 10-1.3 3.9-4.9 5.9-10.3 5.9-7.5 0-11.4-3-11.5-8.8 0-5.2 3.9-8.2 10.7-8.2 3 0 6.3.5 7.4 1.1zm26.3 0c5 2.3 5.8 9.8 1.4 13.9-3.2 3-12.7 2.8-16.3-.3-3.7-3.2-3.8-9.2-.1-12.4 3-2.6 10.6-3.2 15-1.2zm25.8 0c2.8 1.5 5 7.2 3.9 10.2-1.3 3.5-5.4 5.7-10.5 5.7-5.8 0-9.2-1.6-10.6-4.9-1.4-3.6-.8-6.9 1.9-9.7 1.9-2 3.3-2.4 7.8-2.4 3 0 6.3.5 7.5 1.1zm27.6.7c1.5 1.2 2.5 3.2 2.9 5.8.4 3.3.1 4.3-2.1 6.5-2.1 2.1-3.6 2.6-8.4 2.8-5 .2-6.2-.2-8.5-2.3-3.6-3.3-3.7-8.7-.2-12.1 2-2.1 3.4-2.5 8.2-2.5 4 0 6.5.6 8.1 1.8zm26.7-.2c1.5 1 2.7 3 3.1 5.1 1.2 6.4-2.8 10.3-10.6 10.3-5.7 0-8.9-1.6-10.4-5.1-2.9-7 1.2-11.9 10.1-11.9 3.2 0 6.3.6 7.8 1.6zm44.7 22.8c4.2 1.9 4.7 11.5.9 15.1-2.8 2.5-30.3 2.5-33.1 0-3.9-3.5-3.2-13.2 1.2-15.2 2.4-1.1 28.6-1 31 .1zm-258.3 1.1c3.2 1.6 4.1 3.3 4.1 7.5 0 6-6.9 9.6-15 7.9-8.1-1.7-9.7-11.6-2.5-15.7 2.8-1.6 10.1-1.5 13.4.3zm27.1 0c3.8 1.9 5.3 6.8 3.3 10.7-2 4.1-5.1 5.2-13.6 4.9-5.9-.2-10.1-8.8-6.4-13.3 3.1-3.9 11.3-5.1 16.7-2.3zm25.7 0c4.6 3.2 4.7 10.4.3 13.6-4.6 3.3-12.7 2.9-16.4-.7-3.9-4-3-10.9 1.8-13.2 3.2-1.6 11.8-1.4 14.3.3zm27 .2c3.2 2.1 4.3 6.3 2.8 10-1.9 4.6-5 5.7-13.8 5.4-3.9-.1-7.7-4.2-7.7-8.3.1-6 4-8.9 11.5-8.6 2.8.1 6 .8 7.2 1.5zm27.8-.1c5.1 3.3 4.7 11.6-.6 14.5-3.1 1.6-11.7 1.2-14.6-.6-4.6-3-3.9-11.9 1.1-14.3 3.3-1.6 11.4-1.4 14.1.4zm26.4-.1c6.9 3.5 4.8 14.7-2.9 15.3-1.7.1-3.4.3-3.8.3-5.8.9-11.2-3.1-11.2-8.3 0-1.8.4-3.8.8-4.4 3-4.3 11.7-5.8 17.1-2.9zm27.7 1.8c2.6 3.1 3 5.4 1.3 9-1.5 3.4-4.4 4.8-10.1 4.9-8.4 0-13.6-5.8-10.6-11.9 1.8-3.8 5.3-5.3 11.6-5.1 4.5.1 5.7.6 7.8 3.1zm23.9-2.3c3.1 1.2 5.5 6.3 4.6 9.8-1.3 4.7-5.5 6.6-13.7 6.3-8.7-.3-11.5-11.5-3.9-15.9 2.5-1.4 9.5-1.5 13-.2zm28.9 1.5c5.6 5.2 2.9 13.1-5.1 14.5-8 1.3-14.3-2.3-14.3-8.4.1-5.7 3.9-8.5 11.6-8.6 4.1 0 5.7.5 7.8 2.5zm-214.8 29.7c4.1 4.2 3.6 11.9-1 15.7-.9.7-3.8 1.3-6.6 1.4-4.2 0-5.6-.4-7.7-2.6-4.8-4.8-3.3-14.4 2.7-16.6 4-1.5 10.1-.5 12.6 2.1zm29.7.8c3.2 3.6 3.5 7.2.7 11.8-2.5 4-5.5 4.9-15.8 4.3-1.3 0-3.7-1.5-5.2-3.1-2.3-2.5-2.8-3.8-2.6-7.1.4-4.7 3.6-8.6 7.5-9.2 1.4-.2 4.9-.2 7.6 0 4.1.2 5.5.8 7.8 3.3zm126.1-2.6c6.7 1.7 7.4 14.5.9 17.5-2.6 1.2-107.8 1.6-112.1.5-4.8-1.3-6.8-10.7-3.3-15.3 1.3-1.7 3.2-2.6 6.2-3 5.9-.8 105.1-.5 108.3.3zm33.3 2.1c3.2 3.6 3.7 6.8 1.8 10.8-2.4 5.2-5.1 6.2-15.3 5.8-4.7-.2-9.2-4.8-9.2-9.4 0-4.4 4-9.4 7.8-9.9 1.5-.2 5-.3 7.7-.1 3.9.2 5.5.9 7.2 2.8zm43-.1c2.4 3.8 0 5.8-6.8 5.8-5.9-.1-7.2-.9-6.7-4.3.2-2 1-2.5 4.8-2.9 5.2-.6 7.7-.2 8.7 1.4zm-20.1 8.5c1.6.1 2.3 3.5 1.2 5.5-.7 1.2-2.3 1.6-6.1 1.6-5.6 0-7-.6-8-3.2-.4-1.1.1-2.2 1.4-3.2 1.7-1.2 4.1-1.3 11.5-.7zm20 1.5c2.4 3.3.1 5.6-5.6 5.6-2.6 0-5.5-.3-6.4-.6-2.1-.8-2-5.1.2-6.3 2.8-1.6 10.2-.8 11.8 1.3zm18.2-1.1c1.5 1 1.6 3.9 0 5.5-1.5 1.5-9.2 1.6-11.9.1-1.5-.7-1.8-1.6-1.3-3.2.4-1.2 1.1-2.5 1.6-2.8 1.3-.8 10-.5 11.6.4zM73.1 271.6c0 1.1.3 1.4.6.6.3-.7.2-1.6-.1-1.9-.3-.4-.6.2-.5 1.3zM71.7 275.9c-.4 1.7-.3 2.1.5 1.3.5-.5.8-1.6.6-2.3-.3-.8-.7-.3-1.1 1zM613.1 334.6c0 1.1.3 1.4.6.6.3-.7.2-1.6-.1-1.9-.3-.4-.6.2-.5 1.3zM592.6 453.7c-.6 1.4-.5 1.5.5.6.7-.7 1-1.5.7-1.8-.3-.3-.9.2-1.2 1.2zM590.5 459.1c-.4.6-.5 1.2-.2 1.5.2.3.7-.2 1-1.1.7-1.7.1-2-.8-.4zM89 463.9c0 .6.4 1.3 1 1.6.6.3.7-.1.4-.9-.7-1.8-1.4-2.1-1.4-.7zM91 467.9c0 .6.4 1.3 1 1.6.6.3.7-.1.4-.9-.7-1.8-1.4-2.1-1.4-.7zM93 471.9c0 .6.4 1.3 1 1.6.6.3.7-.1.4-.9-.7-1.8-1.4-2.1-1.4-.7zM95 475.6c0 .6.7 1.9 1.6 3 1.4 1.8 1.4 1.8.3-.6-1.4-3.1-1.9-3.6-1.9-2.4zM99.7 484.1c1.1 1.9 3 5.2 4.3 7.4 12.9 22.2 34.2 47.6 55 66 6 5.3 22.8 18.1 27.5 21 4.7 2.9 1.7.3-7-6.1-4.4-3.2-8.5-6.4-9.1-6.9-.6-.6-3.3-2.8-6-5-10-8.2-29.6-28.5-39.4-41-1.7-2.2-3.7-4.7-4.5-5.7-2.1-2.5-12.7-18.6-16.9-25.5-2-3.5-4.2-6.6-4.8-7-.7-.3-.3.9.9 2.8zM570 497c-.6 1.1-.8 2-.6 2 .3 0 1-.9 1.6-2 .6-1.1.8-2 .6-2-.3 0-1 .9-1.6 2zM566.9 501.7c-1.3 1.6-1.2 1.7.4.4 1.6-1.3 2.1-2.1 1.3-2.1-.2 0-1 .8-1.7 1.7zM563.9 505.7c-1.3 1.6-1.2 1.7.4.4 1.6-1.3 2.1-2.1 1.3-2.1-.2 0-1 .8-1.7 1.7zM510 540.2c-4.1 3.9-5.9 6.1-4 4.7 3.9-2.7 13.5-11.9 12.3-11.9-.4.1-4.2 3.3-8.3 7.2zM203.9 578.7c1.3 1 5.2 3.3 8.5 5.1 3.4 1.8 5 2.5 3.7 1.5-1.4-1-5.2-3.3-8.5-5.1-3.4-1.7-5-2.4-3.7-1.5zM190 580.4c0 .3.9 1 2 1.6 1.1.6 2 .8 2 .6 0-.3-.9-1-2-1.6-1.1-.6-2-.8-2-.6zM195 583.4c0 .2.8 1 1.8 1.7 1.5 1.3 1.6 1.2.3-.4s-2.1-2.1-2.1-1.3zM200.4 587.4c1.1.9 2.4 1.6 3 1.6 1.2 0 .7-.5-2.4-1.9-2.4-1.1-2.4-1.1-.6.3zM221 589c1.4 1 2.6 1.7 2.9 1.5.6-.7 4.2 1.5 3.7 2.3-.2.4.6.8 1.7.8 1.2.1 6.6 2 12 4.3 5.5 2.4 10.1 4.1 10.3 3.8.2-.2-2.9-1.7-6.8-3.2-4-1.6-11.3-4.8-16.2-7.2-9.8-4.7-11.4-5.2-7.6-2.3zM253 602.4c0 .7 10.2 3.7 10.8 3.2.2-.3-1.5-1-3.8-1.6-2.3-.6-4.8-1.4-5.6-1.7-.8-.3-1.4-.3-1.4.1zM343.8 604.7c.7.3 1.6.2 1.9-.1.4-.3-.2-.6-1.3-.5-1.1 0-1.4.3-.6.6zM265.8 606.7c.7.3 1.6.2 1.9-.1.4-.3-.2-.6-1.3-.5-1.1 0-1.4.3-.6.6zM269 607.4c0 .2.7.7 1.6 1 .8.3 1.2.2.9-.4-.6-1-2.5-1.4-2.5-.6zM245 609.3c0 1.3 29.4 10.8 32.9 10.6 2-.1 1.9-.1-10.4-3.5-5.5-1.5-12.6-3.8-15.7-5.1-5.8-2.3-6.8-2.6-6.8-2zM378.5 619c-.3.6.1.7.9.4 1.8-.7 2.1-1.4.7-1.4-.6 0-1.3.4-1.6 1zM382.8 618.7c.7.3 1.6.2 1.9-.1.4-.3-.2-.6-1.3-.5-1.1 0-1.4.3-.6.6zM374.8 619.7c.7.3 1.6.2 1.9-.1.4-.3-.2-.6-1.3-.5-1.1 0-1.4.3-.6.6zM365.3 620.7c.9.2 2.5.2 3.5 0 .9-.3.1-.5-1.8-.5-1.9 0-2.7.2-1.7.5zM335.3 621.7c1.5.2 3.9.2 5.5 0 1.5-.2.2-.4-2.8-.4s-4.3.2-2.7.4zM348.3 621.7c1.5.2 3.7.2 5 0 1.2-.2 0-.4-2.8-.4-2.7 0-3.8.2-2.2.4zM357.3 621.7c.9.2 2.3.2 3 0 .6-.3-.1-.5-1.8-.5-1.6 0-2.2.2-1.2.5zM311.8 624.7c.7.3 1.6.2 1.9-.1.4-.3-.2-.6-1.3-.5-1.1 0-1.4.3-.6.6zM318 624.4c0 .2.7.7 1.6 1 .8.3 1.2.2.9-.4-.6-1-2.5-1.4-2.5-.6zM325.8 625.7c2.3.2 6.1.2 8.5 0 2.3-.2.4-.4-4.3-.4s-6.6.2-4.2.4z"/></svg>