<svg xmlns="http://www.w3.org/2000/svg" viewBox="0 0 1250 595.3">
    <defs id="SvgjsDefs1021"/>
    <g id="SvgjsG1022" fill="#ffffff" featurekey="root"/>
    <g id="SvgjsG1023" fill="#4b4b4b" featurekey="container1" transform="matrix(0.9675946891416851,0,0,0.9675946891416851,20.000346038826397,20.0001669060606)">
        <defs xmlns="http://www.w3.org/2000/svg"/>
        <g xmlns="http://www.w3.org/2000/svg">
            <path d="M17.914,148.907c-0.664-0.914-1.313-1.837-1.944-2.774C16.596,147.066,17.249,147.989,17.914,148.907z"/>
            <path d="M22.657,154.94c1.844,2.153,3.788,4.249,5.861,6.251c6.914,6.805,15.159,12.525,24.004,16.851    c3.259,1.526,6.265,3.107,9.787,4.468c0.88,0.338,1.779,0.7,2.724,1.026c0.953,0.302,1.941,0.604,2.974,0.903    c1.027,0.321,2.122,0.549,3.267,0.786c1.146,0.23,2.336,0.493,3.614,0.624c-6.3-1.328-12.498-3.333-18.434-5.99    c-5.93-2.671-11.597-5.979-16.873-9.842c-10.548-7.727-19.57-17.648-26.16-28.989c-0.272-0.339-0.685-0.985-1.18-1.808    c-0.244-0.413-0.512-0.868-0.796-1.348c-0.256-0.496-0.527-1.018-0.803-1.551c-0.534-1.076-1.149-2.168-1.62-3.226    c-0.486-1.05-0.943-2.011-1.326-2.748c2.048,5.101,4.412,9.563,7.059,13.806c1.215,1.936,2.495,3.828,3.869,5.697    c-0.192-0.259-0.392-0.511-0.583-0.771c1.446,1.986,2.974,3.94,4.6,5.841C22.646,154.925,22.651,154.933,22.657,154.94z"/>
            <path d="M18.039,149.078c-0.042-0.057-0.084-0.114-0.125-0.17C17.956,148.964,17.998,149.021,18.039,149.078z"/>
            <path d="M1.335,106.042c-0.159-1.277-0.32-2.567-0.483-3.875c0.256,2.365,0.553,5.008,1.096,7.654    c-0.109-0.624-0.217-1.251-0.327-1.879C1.503,107.315,1.403,106.682,1.335,106.042z"/>
            <path d="M85.812,185.575c6.652,0.673,13.628,0.472,20.461-0.609c6.837-1.077,13.524-2.987,19.741-5.449    c-11.45,4.503-23.602,6.506-35.49,6.171C88.933,185.663,87.365,185.688,85.812,185.575z"/>
            <path d="M46.426,171.967c-0.086-0.055-0.173-0.11-0.259-0.165C46.254,171.857,46.339,171.913,46.426,171.967z"/>
            <path d="M46.167,171.802c-0.853-0.542-1.688-1.1-2.514-1.667C44.475,170.705,45.317,171.257,46.167,171.802z"/>
            <path d="M43.653,170.135c-0.899-0.623-1.797-1.248-2.66-1.897C41.861,168.886,42.752,169.516,43.653,170.135z"/>
            <path d="M56.077,177.284c5.439,2.533,11.23,4.506,17.123,5.816c-9.688-2.21-18.805-6.109-26.774-11.133    C49.486,173.914,52.703,175.716,56.077,177.284z"/>
            <path d="M177.002,107.094c0.098-1.58,0.296-3.238,0.346-4.027c0.594-5.071,0.77-9.401,0.745-13.745    c-0.11-0.783-0.425-2.25-0.55-3.918c-0.153-1.672-0.378-3.309-0.568-4.924c-0.289-1.601-0.538-3.186-0.854-4.74    c2.275,11.617,2.237,23.279,0.144,34.282C176.51,108.986,176.756,108.003,177.002,107.094z"/>
            <path d="M0.887,83.482c0.848-6.9,2.653-13.626,4.37-18.107l-0.695,3.28c0.429-0.961,1.122-3.194,2.067-5.557    c0.225-0.594,0.454-1.2,0.682-1.802c0.255-0.591,0.508-1.179,0.753-1.747c0.5-1.131,0.92-2.203,1.363-3.025    c-0.303,0.771-0.595,1.602-0.947,2.436c-0.345,0.837-0.732,1.687-1.101,2.542c0.755-1.702,0.755-1.702,1.514-3.409    C7.581,61.359,6.148,65.463,4.954,69.8c-1.133,4.352-2.029,8.926-2.511,13.032c-0.14,1.024-0.189,2.024-0.28,2.978    c-0.067,0.954-0.183,1.864-0.192,2.724c-0.042,1.719-0.1,3.224-0.071,4.428c0.105,2.409,0.25,3.61,0.459,2.939    c0.411-1.333,0.403-8.188,1.837-16.767c0.767-4.276,1.868-8.966,3.362-13.561c1.483-4.599,3.427-9.058,5.44-12.992    c-0.197,0.429-0.394,0.859-0.592,1.292c-0.181,0.442-0.362,0.885-0.545,1.331c-0.369,0.889-0.741,1.787-1.116,2.691    c-0.339,0.92-0.68,1.846-1.024,2.78c-0.173,0.466-0.347,0.933-0.521,1.402c-0.153,0.476-0.308,0.954-0.461,1.434    c-1.32,3.807-2.307,7.816-3.167,11.857L5.013,78.42c-0.205,1.014-0.292,2.046-0.444,3.067c-0.318,2.041-0.434,4.097-0.611,6.129    c-0.199,4.074-0.239,8.098,0.13,11.946c-0.015-0.914-0.03-1.726-0.017-2.512c0.038-0.785,0.075-1.545,0.115-2.355    c0.048-0.809,0.039-1.667,0.115-2.65c0.07-0.983,0.134-2.091,0.19-3.402c0.391-6.608,1.572-13.15,3.408-19.481    c1.75-6.358,3.814-11.957,6.889-17.03c0.269-0.513,0.536-1.021,0.801-1.526c0.542-1.024,0.993-2.034,1.566-3.064    c0.653-1.13,1.278-1.976,1.784-2.751c0.521-0.767,0.963-1.441,1.469-2.095c0.969-1.336,1.977-2.729,3.682-5.082    c0.075-0.009-0.022,0.185-0.2,0.473c0.506-0.725,1.194-1.622,1.959-2.49c0.755-0.875,1.488-1.803,2.109-2.569    c0.146-0.007,0.288-0.011,0.623-0.251c8.65-9.197,19.295-16.692,31.291-21.417c0.892-0.347,1.781-0.694,2.667-1.039    c0.902-0.3,1.802-0.6,2.7-0.899l1.343-0.448l1.36-0.38c0.906-0.252,1.809-0.502,2.71-0.753c1.55-0.373,3.12-0.751,4.721-1.091    c0.806-0.141,1.619-0.283,2.437-0.426c0.819-0.141,1.642-0.3,2.484-0.378c1.674-0.201,3.134-0.625,3.921-0.729    c4.369-0.249,8.73-0.199,13.849,0.216c0.397,0.007,1.015,0.043,1.732,0.082c0.717,0.041,1.537,0.061,2.332,0.134    c0.932,0.21,1.927,0.418,2.971,0.621c6.369,0.988,12.527,2.754,18.386,5.103l-0.007-0.028c0.73,0.291,1.479,0.589,2.244,0.894    c0.748,0.346,1.513,0.699,2.29,1.058c1.571,0.684,3.11,1.559,4.7,2.383c0.798,0.407,1.554,0.904,2.338,1.354    c0.77,0.474,1.576,0.894,2.32,1.412c1.508,1.002,3.037,1.961,4.446,3.032c2.402,1.723,4.619,3.507,6.6,5.198    c0.046,0.042,0.094,0.081,0.14,0.122c0.018,0.016,0.028,0.025,0.042,0.038l1.457,1.322l1.394,1.391l1.395,1.392    c0.462,0.467,0.89,0.967,1.337,1.449c-0.216-0.35-0.208-0.491-0.2-0.63c-0.689-0.66-1.504-1.441-2.309-2.21    c1.343,1.222,2.515,2.327,3.477,3.229c0.371,0.474,0.776,0.94,1.16,1.449c0.385,0.508,0.78,1.031,1.186,1.566    c0.41,0.53,0.831,1.074,1.261,1.629c0.409,0.572,0.828,1.156,1.255,1.752c2.226,2.838,4.191,5.874,6.057,8.97    c0.864,1.588,1.817,3.131,2.586,4.774l1.213,2.436l1.092,2.497c0.314,0.533,0.192,0.022,0.231-0.068    c1.225,2.962,2.21,6.042,3.102,9.146c1.692,5.556,2.839,11.323,3.408,17.211c0.225,1.378,0.321,2.772,0.52,4.153    c-0.033,0.787-0.075,1.773-0.123,2.924c-0.001,1.103,0.057,2.206,0.01,3.311c-0.042,1.104-0.085,2.212-0.128,3.326    c-0.016,0.75-0.124,1.569-0.187,2.459c-0.084,0.888-0.128,1.846-0.256,2.856c-0.13,1.008-0.268,2.076-0.412,3.192    c-0.132,1.119-0.387,2.269-0.583,3.471c-0.883,4.79-2.297,10.17-4.312,15.482c-0.242,0.826-0.427,1.486-0.592,1.855    c-0.627,1.501-1.296,2.954-1.942,4.385c-0.723,1.394-1.386,2.788-2.127,4.108c-2.441,4.646-5.246,8.876-7.949,12.379    c-0.336,0.439-0.649,0.885-0.987,1.297c-0.34,0.41-0.673,0.812-0.998,1.206c-0.66,0.779-1.25,1.558-1.876,2.234    c-1.251,1.352-2.301,2.606-3.286,3.549c-1.128,1.178-1.027,1.233-0.246,0.665c0.388-0.287,0.957-0.719,1.608-1.262    c0.631-0.569,1.362-1.228,2.122-1.914c0.776-0.677,1.519-1.441,2.235-2.161c0.708-0.725,1.416-1.386,1.962-1.984    c1.101-1.191,1.824-1.926,1.67-1.599c-1.777,3.345-5.013,7.471-9.743,12.035c-2.413,2.227-5.128,4.647-8.339,6.98    c-1.566,1.221-3.307,2.338-5.082,3.558c-1.834,1.123-3.708,2.353-5.757,3.445c-4.484,2.442,3.365-1.475,3.577-1.512    c-0.605,0.472-1.406,1.062-2.377,1.64c-1.478,0.786-2.943,1.597-4.474,2.273c-0.895,0.411-1.774,0.855-2.679,1.239l-2.729,1.122    c0.483-0.19,0.958-0.376,1.444-0.568c2.952-1.173,5.711-2.555,8.202-3.922c-0.936,0.566-1.96,1.221-3.082,1.812    c-1.203,0.622-2.448,1.302-3.697,1.909c-1.26,0.586-2.494,1.16-3.625,1.686c12.968-4.711,24.885-12.507,34.319-22.67    c4.723-5.066,8.935-10.631,12.369-16.651c3.455-6.005,6.239-12.391,8.288-18.999c-3.154,9.93-8.071,19.052-13.981,26.765    c10.744-14.507,17.15-32.293,17.999-50.636c-0.001,1.011-0.101,2.018-0.168,3.025c-0.083,1.007-0.123,2.018-0.241,3.022    c-0.257,2.005-0.441,4.021-0.827,6.009c-0.624,4-1.636,7.931-2.782,11.815c2.262-7.021,3.613-14.424,4.145-21.869    c0.554-7.451,0.092-14.947-1.057-22.211c1.974,9.622,2.301,20.524,0.619,31.298c1.182-6.949,1.482-14.112,1.028-21.214    c-0.102-2.713-0.422-5.407-0.685-7.901c-0.377-2.476-0.662-4.762-1.027-6.611c1.445,6.826,2.015,12.648,2.293,18.136    c-0.267-11.977-2.748-24.112-7.62-35.511c2.659,6.191,4.842,12.851,6.175,19.698c1.34,6.84,1.897,13.838,1.58,20.57    c-0.015-0.788,0.018-1.575-0.028-2.366c-0.036-0.791-0.071-1.586-0.107-2.391c0.287,10.85-1.384,21.604-4.696,31.717    c-1.662,5.056-3.715,9.969-6.2,14.644c-2.484,4.674-5.349,9.131-8.56,13.316c3.673-4.29,7.551-10.354,10.646-17.015    c3.081-6.675,5.368-13.894,6.941-20.199c-2.314,11.322-6.907,22.494-13.571,32.471c-6.646,9.985-15.351,18.764-25.423,25.502    c-10.06,6.759-21.474,11.437-33.187,13.748c-5.856,1.161-11.779,1.764-17.657,1.809c-5.877,0.032-11.702-0.488-17.361-1.515    l3.005,0.571c1.002,0.19,2.018,0.295,3.026,0.445c2.016,0.324,4.055,0.446,6.087,0.633c4.073,0.229,8.168,0.306,12.25-0.005    c4.089-0.217,8.152-0.827,12.196-1.572c2.006-0.456,4.036-0.829,6.017-1.414c0.994-0.278,2-0.521,2.987-0.83l2.955-0.958    c-1.492,0.462-3.062,1.074-4.739,1.523c-0.692,0.203-1.396,0.41-2.101,0.618c4.45-1.195,8.735-2.677,12.91-4.496    c1.903-0.831,3.786-1.73,5.651-2.705c-3.472,1.838-7.05,3.472-10.714,4.872c-7.006,2.619-14.295,4.418-21.66,5.382    c-1.11,0.176-2.122,0.231-3.029,0.326c-0.908,0.09-1.714,0.169-2.428,0.24c-1.429,0.113-2.484,0.164-3.222,0.245    c-1.477,0.147-1.687,0.284-1.099,0.397c0.587,0.113,1.971,0.203,3.673,0.251c1.697-0.01,3.71-0.101,5.541-0.268    c18.397-1.887,35.288-9.107,48.824-19.916c13.545-10.811,23.919-25.172,29.701-41.467c0.363-0.946,0.642-1.922,0.944-2.89    c0.293-0.971,0.617-1.932,0.882-2.912c0.491-1.97,1.072-3.917,1.448-5.917l0.619-2.985l0.487-3.012l0.241-1.507l0.172-1.517    l0.342-3.034c0.698-8.114,0.422-16.315-0.812-24.363c-0.66-4.554-1.82-9.961-3.315-14.777c-0.395-1.197-0.781-2.365-1.15-3.484    c-0.4-1.107-0.825-2.151-1.203-3.133c-0.193-0.49-0.379-0.962-0.557-1.415c-0.2-0.444-0.39-0.869-0.571-1.271    c-0.37-0.801-0.7-1.516-0.981-2.124c-3.134-6.359-7.072-12.424-11.682-18.065c-4.605-5.643-9.896-10.868-15.861-15.418    c-0.747-0.566-1.494-1.134-2.244-1.703c-0.774-0.535-1.55-1.071-2.327-1.608l-1.166-0.806l-1.203-0.756    c-0.804-0.502-1.609-1.004-2.417-1.508c-3.295-1.904-6.67-3.739-10.228-5.261c-3.521-1.598-7.206-2.895-10.957-4.055    c-1.895-0.52-3.781-1.1-5.724-1.499c-0.968-0.209-1.928-0.463-2.907-0.638c-0.979-0.174-1.96-0.347-2.944-0.521    C100.363,0.01,93.04-0.285,85.724,0.265c-7.312,0.565-14.655,1.953-21.696,4.349l-2.635,0.913c-0.881,0.297-1.73,0.682-2.597,1.019    c-0.858,0.359-1.735,0.673-2.577,1.069l-2.532,1.173c-0.852,0.376-1.675,0.808-2.496,1.245l-2.469,1.297l-2.402,1.412    c-0.8,0.472-1.606,0.933-2.372,1.458l-2.324,1.528c-0.782,0.497-1.506,1.078-2.261,1.612c-0.741,0.554-1.51,1.07-2.226,1.654    l-2.157,1.737c-0.729,0.565-1.417,1.178-2.103,1.792l-2.063,1.83l-1.971,1.919c-0.656,0.639-1.319,1.271-1.93,1.951    c-5.031,5.298-9.451,11.078-13.066,17.194c-3.615,6.116-6.503,12.509-8.667,18.962c-4.375,12.92-5.63,26.023-5.046,37.858    C0.008,97.365-0.013,90.378,0.887,83.482z M142.019,173.928c3.038-1.966,5.968-4.097,8.765-6.389    C147.944,169.878,145.026,172.038,142.019,173.928z M182.236,119.646c-0.299,0.901-0.552,1.791-0.882,2.641    c-0.323,0.852-0.641,1.69-0.957,2.523l-0.466,1.248l-0.513,1.231c-0.339,0.823-0.672,1.653-0.997,2.501    c-1.848,4.606-4.058,9.082-6.587,13.35c-2.521,4.275-5.443,8.281-8.565,12.04c-1.542,1.899-3.222,3.66-4.874,5.421    c-0.863,0.844-1.724,1.686-2.581,2.523c-0.847,0.848-1.774,1.604-2.652,2.404c-0.736,0.64-1.478,1.266-2.225,1.882    c2.772-2.281,5.413-4.718,7.896-7.312c-3.789,3.921-7.616,7.205-11.689,10.188c-1.036,0.722-2.037,1.496-3.113,2.176    c-1.073,0.684-2.153,1.372-3.247,2.069c-1.127,0.641-2.269,1.289-3.43,1.949c-1.167,0.648-2.399,1.224-3.634,1.855    c0.718-0.431,1.658-0.952,2.685-1.508c1.021-0.567,2.092-1.237,3.138-1.85c1.054-0.601,2.012-1.261,2.808-1.813    c0.796-0.552,1.42-1.01,1.745-1.306c-0.464,0.315-0.936,0.617-1.406,0.924c0.503-0.333,1.006-0.669,1.507-1.015    c-0.021,0.023-0.065,0.059-0.101,0.091c10.932-7.466,20.245-17.277,27.223-28.462c7.009-11.175,11.57-23.781,13.46-36.601    C184.369,111.937,183.427,116.043,182.236,119.646z M175.582,54.294c-0.294-0.688-0.59-1.374-0.923-2.034    C174.997,52.928,175.29,53.611,175.582,54.294z M167.134,41.596c3.025,4.566,5.623,9.379,7.773,14.352    c0.25,0.549,0.486,1.106,0.719,1.664c4.963,12.154,7.221,25.192,6.89,38.036c0.084-4.25-0.198-8.498-0.669-12.71    c-0.533-4.854-1.518-9.65-2.824-14.341c-2.562-9.407-6.723-18.323-12.005-26.451c0.485,0.67,0.996,1.396,1.525,2.166    c0.536,0.766,1.083,1.581,1.59,2.463l-0.638-1.109l-0.689-1.079l-1.378-2.156c-0.938-1.424-1.955-2.796-2.934-4.192    c-1.062-1.334-2.069-2.712-3.174-4.011c-0.836-0.953-1.637-1.938-2.485-2.879C161.827,34.504,164.636,37.889,167.134,41.596z     M96.886,1.152c1.467,0.078,2.937,0.221,4.407,0.331c1.204,0.101,2.402,0.279,3.588,0.413c0.356,0.015,0.732,0.039,1.204,0.092    c0.471,0.065,1.034,0.186,1.769,0.354c5.469,0.912,10.459,2.283,14.001,3.699c6.798,2.573,13.123,5.774,18.86,9.471    c5.739,3.69,10.889,7.887,15.246,12.471c2.008,2.179,1.422,1.704,0.315,0.646c0.551,0.585,1.104,1.172,1.662,1.764    c-0.736-0.734-1.459-1.478-2.206-2.196l-2.301-2.09c0.56,0.49,1.918,1.663,2.845,2.522c-7.389-7.539-16.026-13.799-25.375-18.404    c-9.356-4.603-19.431-7.446-29.502-8.581c1.618,0.18,2.412,0.22,3.168,0.24c-1.085-0.127-2.173-0.301-3.274-0.401    c-1.479-0.097-2.955-0.229-4.423-0.301c-1.469-0.035-2.927-0.069-4.36-0.103C93.954,1.078,95.417,1.118,96.886,1.152z"/>
            <path d="M115.942,184.69c0.143-0.042,0.283-0.083,0.426-0.125c-0.446,0.12-0.885,0.252-1.334,0.366    C115.338,184.855,115.643,184.781,115.942,184.69z"/>
            <path d="M160.424,146.151c4.235-5.587,7.977-12.263,10.366-18.014l-0.029,0.006c-6.061,14.322-15.892,26.66-28.16,35.744    c2.378-1.65,4.53-3.248,6.418-4.703C151.717,156.364,156.232,151.778,160.424,146.151z"/>
            <path d="M35.35,162.846c7.172,6.412,15.821,11.992,25.448,15.751c3.754,1.413,7.585,2.651,11.503,3.523    c1.944,0.502,3.929,0.812,5.899,1.181c0.987,0.175,1.987,0.272,2.979,0.412c0.994,0.129,1.986,0.275,2.987,0.333    c-4.519-0.501-9.005-1.251-13.372-2.44c-4.364-1.185-8.642-2.65-12.769-4.449c-4.113-1.831-8.087-3.942-11.894-6.314    C42.345,168.435,38.755,165.746,35.35,162.846z"/>
            <path d="M123.877,174.277l-2.219,0.871l-2.266,0.756c-1.5,0.54-3.047,0.944-4.59,1.373c1.551-0.39,3.111-0.754,4.624-1.254    c0.763-0.233,1.524-0.466,2.283-0.698c0.746-0.272,1.489-0.544,2.23-0.815C123.853,174.466,123.345,174.565,123.877,174.277z"/>
            <path d="M97.683,179.965c-1.16,0.099-2.326,0.09-3.494,0.102c-1.168,0.014-2.338,0.039-3.509-0.038    c0.565,0.053,1.093,0.103,1.576,0.148c0.482,0.031,0.916,0.068,1.295,0.113C94.932,180.172,96.303,180.139,97.683,179.965z"/>
            <path d="M51.441,169.209c1.341,0.787,2.765,1.48,4.178,2.244c0.354,0.194,0.996,0.415,1.801,0.709    c-1.721-0.739-3.37-1.655-5.046-2.505c-0.83-0.441-1.629-0.935-2.443-1.395c-0.812-0.464-1.621-0.927-2.389-1.445    c0.31,0.208,0.623,0.417,0.937,0.626c0.324,0.194,0.65,0.388,0.977,0.584C50.111,168.417,50.774,168.812,51.441,169.209z"/>
        </g>
    </g>
    <g id="SvgjsG1024" fill="#4b4b4b" featurekey="symbol1" transform="matrix(1.1098778382446535,0,0,1.1098778382446535,54.45061080877673,60.90122161755347)">
        <g display="none">
            <g display="inline">
                <path fill="#4b4b4b" d="M50,5C25.1,5,5,25.1,5,50c0,24.9,20.1,45,45,45c24.9,0,45-20.1,45-45C95,25.1,74.9,5,50,5z M29,56.7    c-3.6,0-6.6-3-6.6-6.6c0-3.6,3-6.6,6.6-6.6s6.6,3,6.6,6.6C35.6,53.8,32.7,56.7,29,56.7z M50,56.5c-3.6,0-6.6-3-6.6-6.6    c0-3.6,3-6.6,6.6-6.6c3.6,0,6.6,3,6.6,6.6C56.6,53.6,53.6,56.5,50,56.5z M72.3,58.9c-4.9,0-8.9-4-8.9-8.9c0-4.9,4-8.9,8.9-8.9    c4.9,0,8.9,4,8.9,8.9C81.3,54.9,77.3,58.9,72.3,58.9z"/>
            </g>
        </g>
        <g display="none">
            <g display="inline">
                <path fill="#4b4b4b" d="M95,12.9C94.7,8.5,91.1,5,86.7,5H13.3C8.9,5,5.3,8.5,5,12.9h0V95h90L95,12.9L95,12.9z M28.4,8.9    c1.3,0,2.4,1.1,2.4,2.4s-1.1,2.4-2.4,2.4S26,12.7,26,11.3S27.1,8.9,28.4,8.9z M21.7,8.9c1.3,0,2.4,1.1,2.4,2.4s-1.1,2.4-2.4,2.4    s-2.4-1.1-2.4-2.4S20.3,8.9,21.7,8.9z M14.7,8.9c1.3,0,2.4,1.1,2.4,2.4s-1.1,2.4-2.4,2.4s-2.4-1.1-2.4-2.4S13.3,8.9,14.7,8.9z     M89.8,89.8H41.8V75.5H20.5v14.2H10.2V16.9h79.5V89.8z"/>
                <rect width="73.2" height="13.1" x="13.5" y="21.2" fill="#4b4b4b"/>
                <rect width="32.1" height="2.2" x="34" y="39.9" fill="#4b4b4b"/>
                <rect width="32.1" height="2.2" x="34" y="43.2" fill="#4b4b4b"/>
                <rect width="32.1" height="2.2" x="34" y="46.6" fill="#4b4b4b"/>
                <rect width="32.1" height="2.2" x="47.9" y="76.7" fill="#4b4b4b"/>
                <rect width="32.1" height="2.2" x="47.9" y="80.1" fill="#4b4b4b"/>
                <rect width="32.1" height="2.2" x="47.9" y="83.4" fill="#4b4b4b"/>
                <path fill="#4b4b4b" d="M17,59.9c-1.5,0-2.7,1.2-2.7,2.7c0,1.5,1.2,2.7,2.7,2.7c1.5,0,2.7-1.2,2.7-2.7    C19.7,61.1,18.5,59.9,17,59.9z M17.4,64.3L16,62.8l0.1-0.1l-0.1-0.1l1.5-1.5l0.3,0.3l-1.3,1.3l1.3,1.3L17.4,64.3z"/>
                <path fill="#4b4b4b" d="M82.7,59.9c-1.5,0-2.7,1.2-2.7,2.7c0,1.5,1.2,2.7,2.7,2.7c1.5,0,2.7-1.2,2.7-2.7    C85.4,61.1,84.2,59.9,82.7,59.9z M82.3,64.1L82,63.8l1.3-1.3l-1.3-1.3l0.3-0.3l1.5,1.5l-0.1,0.1l0.1,0.1L82.3,64.1z"/>
                <rect width="10.9" height="10.9" x="25.3" y="57.4" fill="#4b4b4b"/>
                <rect width="10.9" height="10.9" x="38" y="57.4" fill="#4b4b4b"/>
                <rect width="10.9" height="10.9" x="51.1" y="57.4" fill="#4b4b4b"/>
                <rect width="10.9" height="10.9" x="63.9" y="57.4" fill="#4b4b4b"/>
            </g>
        </g>
        <g display="none">
            <circle cx="50.4" cy="8" r="0.2" fill="#4b4b4b" display="inline"/>
            <circle cx="50.8" cy="7.4" r="0.2" fill="#4b4b4b" display="inline"/>
            <circle cx="50.8" cy="8.3" r="0.2" fill="#4b4b4b" display="inline"/>
            <circle cx="50.4" cy="8.7" r="0.2" fill="#4b4b4b" display="inline"/>
            <circle cx="49.6" cy="8.1" r="0.2" fill="#4b4b4b" display="inline"/>
            <circle cx="49.5" cy="8.7" r="0.2" fill="#4b4b4b" display="inline"/>
            <circle cx="50" cy="7.9" r="0.2" fill="#4b4b4b" display="inline"/>
            <circle cx="50.5" cy="7.1" r="0.2" fill="#4b4b4b" display="inline"/>
            <circle cx="50" cy="8.3" r="0.2" fill="#4b4b4b" display="inline"/>
            <circle cx="50" cy="8.8" r="0.2" fill="#4b4b4b" display="inline"/>
            <circle cx="50.9" cy="7.9" r="0.2" fill="#4b4b4b" display="inline"/>
            <circle cx="49" cy="7.9" r="0.2" fill="#4b4b4b" display="inline"/>
            <circle cx="49.1" cy="8.3" r="0.2" fill="#4b4b4b" display="inline"/>
            <circle cx="49.2" cy="7.4" r="0.2" fill="#4b4b4b" display="inline"/>
            <circle cx="49.6" cy="7.7" r="0.2" fill="#4b4b4b" display="inline"/>
            <circle cx="50" cy="6.9" r="0.2" fill="#4b4b4b" display="inline"/>
            <circle cx="49.9" cy="7.4" r="0.2" fill="#4b4b4b" display="inline"/>
            <circle cx="49.5" cy="7.1" r="0.2" fill="#4b4b4b" display="inline"/>
            <circle cx="50.4" cy="7.6" r="0.2" fill="#4b4b4b" display="inline"/>
            <g display="inline">
                <path fill="#4b4b4b" d="M71.6,11.2V9.8l0,0c0-0.1,0-0.3-0.1-0.4c-0.1-0.3-0.4-0.8-0.5-1c-0.5-0.7-1.2-1.5-2.6-1.8    c-1.4-0.3-10.9-1.9-21.6-1.4C39,5.4,32.7,6.4,31.6,6.7c-0.7,0.2-1.3,0.5-1.8,0.9c-0.3,0.2-1,0.9-1.2,1.3c-0.1,0.3-0.2,0.6-0.2,0.8    l0,0v1.1h0v78.2h0v1.4v0c0,0.1,0,0.3,0.1,0.4c0.1,0.3,0.4,0.8,0.5,1c0.5,0.7,1.2,1.5,2.6,1.8c1.4,0.3,10.9,1.9,21.6,1.4    c7.9-0.2,14.2-1.2,15.3-1.5c0.7-0.2,1.3-0.5,1.8-0.9c0.3-0.2,1-0.9,1.2-1.3c0.1-0.3,0.2-0.6,0.2-0.8l0,0v-1.5h0L71.6,11.2    L71.6,11.2z M50,6.6c0.7,0,1.2,0.6,1.2,1.2S50.7,9.1,50,9.1c-0.7,0-1.2-0.6-1.2-1.2S49.3,6.6,50,6.6z M37.5,7.3    c0.5,0,0.9,0.4,0.9,0.9c0,0.5-0.4,0.9-0.9,0.9c-0.5,0-0.9-0.4-0.9-0.9C36.6,7.7,37,7.3,37.5,7.3z M68.5,87.3H31.3V10.8h37.2V87.3z    "/>
                <path fill="#4b4b4b" d="M37.5,9c0.4,0,0.8-0.4,0.8-0.8S38,7.4,37.5,7.4s-0.8,0.4-0.8,0.8S37.1,9,37.5,9z M37.5,7.5    c0.4,0,0.7,0.3,0.7,0.7s-0.3,0.7-0.7,0.7s-0.7-0.3-0.7-0.7S37.1,7.5,37.5,7.5z"/>
            </g>
        </g>
        <g display="none">
            <g display="inline">
                <path fill="#4b4b4b" d="M50.1,63.5L50,63.4l-0.1,0.1l-19-19c-1.3,2.7-2,5.7-2,8.9v20.7c0,11.6,9.4,21,21,21c11.6,0,21-9.4,21-21    V53.4c0-3.1-0.7-6.1-1.9-8.7L50.1,63.5z"/>
                <path fill="#4b4b4b" d="M50,59.6L67.6,42c-3.7-5.8-10.2-9.6-17.6-9.6c-7.4,0-13.8,3.8-17.6,9.5L50,59.6z M50.1,40    c2.2,0,3.9,1.8,3.9,3.9c0,2.2-1.8,3.9-3.9,3.9c-2.2,0-3.9-1.8-3.9-3.9C46.1,41.8,47.9,40,50.1,40z"/>
            </g>
            <path fill="#4b4b4b" d="M49.6,28.7c-0.2-2.2,0.9-4.5,3.2-6.8l0,0c2.8-2.7,4.1-5.6,3.9-8.6   c-0.4-4.7-4.6-7.8-4.8-7.9l-1.3,1.8c0,0,3.5,2.6,3.8,6.2c0.2,2.2-0.9,4.5-3.2,6.8l0,0c-2.8,2.7-4.1,5.6-3.9,8.6   c0.4,4.7,4.6,7.8,4.8,7.9l1.3-1.8C53.4,34.9,49.9,32.3,49.6,28.7z" display="inline"/>
        </g>
        <g display="none">
            <path fill="#4b4b4b" d="M72.9,27.2c-2.7,0-5.3,0.5-7.7,1.4c-3-8.5-11.1-14.7-20.6-14.7   c-11.2,0-20.4,8.4-21.7,19.2c-1.7-1-3.7-1.6-5.8-1.6c-6.4,0-11.5,5.2-11.5,11.5c0,6.4,5.2,11.5,11.5,11.5c0.5,0,0.9,0,1.3-0.1   c-0.1,0.7-0.1,1.4-0.1,2.2c0,15.8,12.8,28.6,28.6,28.6c10.8,0,20.1-6,25-14.8c0.3,0,0.7,0,1,0c12,0,21.7-9.7,21.7-21.7   C94.6,36.9,84.9,27.2,72.9,27.2z" display="inline"/>
        </g>
        <g display="none">
            <g display="inline">
                <path fill="#4b4b4b" d="M78.8,49.1c-0.6-7.7-7.4-13.4-15.1-12.8c-1.7,0.1-3.4,0.6-4.9,1.3c-2.3-5.3-7.9-8.8-14-8.3    c-7.2,0.6-12.6,6.5-12.9,13.5c-1.1-0.6-2.4-0.8-3.8-0.7c-4.1,0.3-7.1,3.9-6.8,8c0.3,4.1,3.9,7.1,8,6.8c0.3,0,0.6-0.1,0.9-0.1    c0,0.5,0,0.9,0,1.4c0.5,6.4,4.2,11.7,9.4,14.6l-0.3,9.4l5.1-3.1l-1.3,9.4L51,74.9c6.5-0.8,11.9-5,14.4-10.7c0.2,0,0.4,0,0.6,0    C73.7,63.6,79.4,56.8,78.8,49.1z"/>
                <path fill="#4b4b4b" d="M59.5,22.2c0.2,0,0.3,0,0.4-0.1c0,0.2,0,0.5,0,0.7c0.4,5.3,5.1,9.2,10.3,8.8c2.8-0.2,5.2-1.6,6.8-3.6    l0,1.5l3-1.8l-0.8,5.6l4.9-8.6l-1.6-0.2c1.8-1.5,2.8-3.7,2.6-6.2c-0.3-4-3.8-7-7.8-6.7c-0.9,0.1-1.8,0.3-2.5,0.7    c-1.2-2.8-4.1-4.6-7.3-4.3c-3.7,0.3-6.6,3.4-6.7,7c-0.6-0.3-1.3-0.4-2-0.4c-2.1,0.2-3.7,2-3.5,4.2C55.5,20.8,57.4,22.4,59.5,22.2z    "/>
                <path fill="#4b4b4b" d="M19.7,25.9c0,0.1,0,0.2,0,0.4c0.1,1.1,0.5,2,1.2,2.8l-0.1,4.5l3-1.8l-0.8,5.6l4.2-7.3    c0.8-0.5,1.5-1.3,1.9-2.1c0.1,0,0.1,0,0.2,0c2.1-0.2,3.6-2,3.4-4c-0.2-2.1-2-3.6-4-3.4c-0.5,0-0.9,0.2-1.3,0.4    c-0.6-1.4-2.1-2.4-3.7-2.2c-1.9,0.2-3.4,1.7-3.4,3.6c-0.3-0.1-0.7-0.2-1-0.2c-1.1,0.1-1.9,1-1.8,2.1c0.1,1.1,1,1.9,2.1,1.8    C19.6,25.9,19.7,25.9,19.7,25.9z"/>
            </g>
        </g>
        <g display="none">
            <g display="inline">
                <path fill="#4b4b4b" d="M26.6,74.9l-4.6,3c-1.2,0.8-2.1,2.1-1.7,3.6c0.4,1.6,2.1,2.6,3.7,2.1c1.4-0.4,2.2-1.8,2.2-3.1L26.6,74.9z"/>
                <path fill="#4b4b4b" d="M29.1,84.4l-4.6,3c-1.2,0.8-2.1,2.1-1.7,3.6c0.4,1.6,2.1,2.6,3.7,2.1c1.4-0.4,2.2-1.8,2.2-3.1L29.1,84.4z"/>
                <path fill="#4b4b4b" d="M38.1,81.1l-4.6,3c-1.2,0.8-2.1,2.1-1.7,3.6c0.4,1.6,2.1,2.6,3.7,2.1c1.4-0.4,2.2-1.8,2.2-3.1L38.1,81.1z"/>
            </g>
            <path fill="#4b4b4b" d="M47.5,79.9l-4.6,3c-1.2,0.8-2.1,2.1-1.7,3.6c0.4,1.6,2.1,2.6,3.7,2.1   c1.4-0.4,2.2-1.8,2.2-3.1L47.5,79.9z" display="inline"/>
            <path fill="#4b4b4b" d="M19.1,69l-4.6,3c-1.2,0.8-2.1,2.1-1.7,3.6c0.4,1.6,2.1,2.6,3.7,2.1   c1.4-0.4,2.2-1.8,2.2-3.1L19.1,69z" display="inline"/>
            <path fill="#4b4b4b" d="M18.6,84.6l-4.6,3c-1.2,0.8-2.1,2.1-1.7,3.6c0.4,1.6,2.1,2.6,3.7,2.1   c1.4-0.4,2.2-1.8,2.2-3.1L18.6,84.6z" display="inline"/>
            <path fill="#4b4b4b" d="M84.3,33.7c-2.6,3.3-6.6,5.4-11.1,5.4c-7.7,0-14-6.3-14-14c0-0.4,0-0.7,0.1-1.1   c-0.2,0-0.4,0-0.7,0c-3.1,0-5.7-2.5-5.7-5.7c0-1.1,0.3-2.1,0.8-2.9C50.4,12.7,46,11,41.2,11c-10.1,0-18.4,7.6-19.6,17.4   c-1.5-0.9-3.3-1.4-5.2-1.4C10.7,26.9,6,31.6,6,37.3c0,5.8,4.7,10.4,10.4,10.4c0.4,0,0.8,0,1.2-0.1c0,0.6-0.1,1.3-0.1,2   c0,14.3,11.6,25.8,25.8,25.8c9.7,0,18.2-5.4,22.6-13.3c0.3,0,0.6,0,0.9,0c10.8,0,19.6-8.8,19.6-19.6C86.4,39.3,85.7,36.3,84.3,33.7   z M51.8,43.1c-0.3-1.2,0.4-2.3,1.4-3l3.8-2.5l-0.2,4.7c-0.1,1.1-0.7,2.3-1.9,2.6C53.6,45.2,52.2,44.4,51.8,43.1z M59,50.2   c-0.1,1.1-0.7,2.3-1.9,2.6c-1.4,0.4-2.8-0.4-3.1-1.8c-0.3-1.2,0.4-2.3,1.4-3l3.8-2.5L59,50.2z M66.5,47.5c-0.1,1.1-0.7,2.3-1.9,2.6   c-1.4,0.4-2.8-0.4-3.1-1.8c-0.3-1.2,0.4-2.3,1.4-3l3.8-2.5L66.5,47.5z" display="inline"/>
            <path fill="#4b4b4b" d="M84.5,10.7c-1.2,0-2.3,0.2-3.3,0.6C79.9,7.6,76.4,5,72.3,5c-4.8,0-8.7,3.6-9.3,8.2   c-0.7-0.4-1.6-0.7-2.5-0.7c-2.7,0-4.9,2.2-4.9,4.9c0,2.7,2.2,4.9,4.9,4.9c0.2,0,0.4,0,0.6,0c0,0.3,0,0.6,0,0.9   c0,6.8,5.5,12.2,12.2,12.2c4.6,0,8.6-2.6,10.7-6.3c0.1,0,0.3,0,0.4,0c5.1,0,9.3-4.2,9.3-9.3C93.8,14.8,89.6,10.7,84.5,10.7z" display="inline"/>
        </g>
        <g display="none">
            <g display="inline">
                <path fill="#4b4b4b" d="M56.5,21.2v-4.9c0-2.7-1.7-5-4-6v-3c0-1.2-1-2.2-2.2-2.2c-1.2,0-2.2,1-2.2,2.2v2.8    c-2.6,0.8-4.5,3.3-4.5,6.2v1c-1.5,0.3-2.7,1.5-3.1,3.1C38.3,23,30.1,35,39,48.4c0,0.1,0,0.3,0,0.4c0,1.1,0.9,1.9,1.9,1.9    s1.9-0.9,1.9-1.9c0-1-0.7-1.7-1.6-1.9c-7.2-10.9-2.3-20.1,0-23.3c0.6,0.7,1.4,1.3,2.3,1.5v56.8h13V37.2l-2.6,4.1    c-0.4,0.6-1.2,0.8-1.8,0.4c-0.6-0.4-0.8-1.2-0.4-1.8l4.7-7.5v-1l-2.6,4.1c-0.4,0.6-1.2,0.8-1.8,0.4c-0.6-0.4-0.8-1.2-0.4-1.8    l4.7-7.5V26L53.9,30c-0.4,0.6-1.2,0.8-1.8,0.4c-0.6-0.4-0.8-1.2-0.4-1.8L56.5,21.2z"/>
                <path fill="#4b4b4b" d="M46,89.6h2v3.7c0,1,0.8,1.8,1.8,1.8s1.8-0.8,1.8-1.8v-3.7h2.1l2.6-6.8H43.4L46,89.6z M49.8,92    c0.7,0,1.3,0.6,1.3,1.3c0,0.7-0.6,1.3-1.3,1.3c-0.7,0-1.3-0.6-1.3-1.3C48.5,92.6,49.1,92,49.8,92z"/>
            </g>
        </g>
        <g display="none">
            <g display="inline">
                <path fill="#4b4b4b" d="M68.4,31.4H39.9c0.7-1.1,1.6-2.2,2.8-3.3l0,0c3.9-3.8,5.8-7.8,5.5-12c-0.5-6.6-6.4-10.9-6.7-11l-1.8,2.6    c0.1,0,5,3.6,5.3,8.7c0.2,3.1-1.3,6.3-4.5,9.4l0,0c-1.9,1.8-3.3,3.7-4.2,5.6h-4.5c-3.3,0-6.1,2.7-6.1,6.1v39.8    c0,3.3,2.7,6.1,6.1,6.1H46c0,2.8,1.9,5,4.2,5.1v5.3c0,0.7,0.5,1.2,1.2,1.2c0.7,0,1.2-0.5,1.2-1.2v-5.2h6.1v5.2    c0,0.7,0.5,1.2,1.2,1.2c0.7,0,1.2-0.5,1.2-1.2v-5.2h0.3c2.3,0,4.2-2.3,4.3-5.1h2.6c3.3,0,6.1-2.7,6.1-6.1V37.5    C74.5,34.2,71.8,31.4,68.4,31.4z M67.9,41.9H55v-5.4h12.9V41.9z"/>
                <rect width="10.1" height="1.6" x="56.3" y="37.3" fill="#4b4b4b"/>
                <rect width="10.1" height="1.6" x="56.3" y="39.4" fill="#4b4b4b"/>
            </g>
        </g>
        <g display="none">
            <g display="inline">
                <path fill="#4b4b4b" d="M38.7,29.7L25.9,42.6c-1.7,1.7-1.7,4.6,0.1,6.3l6.5,6.5l9.1-9.1l-5.2-5.2l1.2-1.2l5.2,5.2l8.8-8.8    l-6.5-6.5C43.3,28,40.5,28,38.7,29.7z"/>
                <path fill="#4b4b4b" d="M84.7,62.1L46.4,23.9c-2.7-2.7-7-2.7-9.6,0l-7.2,7.2c-1.3-0.1-3.1-0.4-4.4-1.5c-1.5-1.3-2.2-3.3-2.1-6.1    l0,0c0.1-3.4-0.9-5.9-2.8-7.6c-3.1-2.7-7.5-1.9-7.7-1.9l0.3,1.9c0,0,3.7-0.6,6.1,1.5c1.5,1.3,2.2,3.3,2.1,6.1l0,0    C21,26.8,22,29.4,23.9,31c1.2,1,2.6,1.6,3.9,1.8l-7.6,7.6c-2.7,2.7-2.7,7,0,9.6l38.2,38.2c2.7,2.7,7,2.7,9.7,0l16.6-16.6    C87.3,69.1,87.3,64.7,84.7,62.1z M32.5,57.8l-0.6-0.6l0,0l-7.1-7.1c-2.4-2.4-2.5-6.4-0.1-8.8l12.8-12.8c2.4-2.4,6.3-2.4,8.8,0.1    l7.1,7.1l0,0l0.6,0.6L32.5,57.8z"/>
                <path fill="#4b4b4b" d="M56.6,26.8c-0.4,0.9-0.2,2,0.6,2.8l1.4,1.4l3.4,0.8c0.3,0.1,0.4,0.3,0.4,0.6c-0.1,0.3-0.3,0.4-0.6,0.4    l-1.8-0.4l0.2,0.2l3.4,0.8c0.3,0.1,0.4,0.3,0.4,0.6c-0.1,0.3-0.3,0.4-0.6,0.4l-1.8-0.4l0.3,0.3l3.4,0.8c0.3,0.1,0.4,0.3,0.4,0.6    c-0.1,0.3-0.3,0.4-0.6,0.4L63,35.4l12.4,12.4l3.6-3.6L63.2,28.4c0.2-0.3,0.3-0.7,0.2-1.1c1.5,0.3,5.5,1.4,6.5,6.5    c-0.2,0.3-0.2,0.7,0.1,1c0.3,0.3,0.8,0.3,1.1,0c0.3-0.3,0.3-0.8,0-1.1c0,0-0.1-0.1-0.1-0.1c-1.3-6.2-6.9-7.2-8.2-7.4    c-0.5-0.3-1.2-0.3-1.7,0l-0.3-0.3c-0.8-0.8-2-1-3-0.5L57,24.7c-0.3-0.3-0.9-0.3-1.2,0c-0.3,0.3-0.3,0.9,0,1.2L56.6,26.8z"/>
                <path fill="#4b4b4b" d="M78.3,49.1l0.6-0.6l1,1c0.3,0.3,0.7,0.3,1,0c0.3-0.3,0.3-0.7,0-1l-1-1l0.5-0.5l-1.2-2.6L75.7,48L78.3,49.1    z M80,48.7c0.2-0.2,0.5-0.2,0.7,0c0.2,0.2,0.2,0.5,0,0.7c-0.2,0.2-0.5,0.2-0.7,0C79.9,49.2,79.8,48.9,80,48.7z"/>
            </g>
        </g>
        <g display="none">
            <rect width="14.1" height="3.5" x="36" y="32" fill="#4b4b4b" display="inline"/>
            <rect width="16.9" height="3.5" x="36" y="37.1" fill="#4b4b4b" display="inline"/>
            <rect width="14.1" height="3.5" x="36" y="61.8" fill="#4b4b4b" display="inline"/>
            <rect width="16.9" height="3.5" x="36" y="66.9" fill="#4b4b4b" display="inline"/>
            <g display="inline">
                <path fill="#4b4b4b" d="M59.5,10H41c-7.2,0-13.1,5.9-13.1,13.1v54.5c0,7.2,5.9,13.1,13.1,13.1h18.5c7.2,0,13.1-5.9,13.1-13.1V23.1    C72.6,15.9,66.7,10,59.5,10z M49.9,88.1c-1.5,0-2.7-1.2-2.7-2.7s1.2-2.7,2.7-2.7s2.7,1.2,2.7,2.7S51.4,88.1,49.9,88.1z M66.1,79.4    H33.9V19.1h32.2V79.4z"/>
                <rect width="27.8" height="3.5" x="36" y="22.4" fill="#4b4b4b"/>
                <rect width="20.8" height="3.5" x="36" y="27.3" fill="#4b4b4b"/>
                <rect width="26.2" height="3.5" x="36" y="42" fill="#4b4b4b"/>
                <rect width="24.2" height="3.5" x="36" y="46.8" fill="#4b4b4b"/>
                <rect width="27.8" height="3.5" x="36" y="52.1" fill="#4b4b4b"/>
                <rect width="20.8" height="3.5" x="36" y="57" fill="#4b4b4b"/>
                <rect width="26.2" height="3.5" x="36" y="71.8" fill="#4b4b4b"/>
            </g>
        </g>
        <g display="none">
            <path fill="#4b4b4b" d="M37,33.4c3.8-0.3,7.6,1.5,11.3,5.4l0,0c4.6,4.7,9.4,7,14.4,6.6c7.9-0.6,13-7.7,13.2-8   l-3.1-2.2c0,0.1-4.3,5.9-10.5,6.4c-3.8,0.3-7.6-1.5-11.3-5.4l0,0c-4.6-4.7-9.4-6.9-14.4-6.6c-7.9,0.6-13,7.7-13.2,8l3.1,2.2   C26.6,39.7,30.8,33.8,37,33.4z" display="inline"/>
            <path fill="#4b4b4b" d="M37,43c3.8-0.3,7.6,1.5,11.3,5.4l0,0c4.6,4.7,9.4,7,14.4,6.6c7.9-0.6,13-7.7,13.2-8   l-3.1-2.2c0,0.1-4.3,5.9-10.5,6.4c-3.8,0.3-7.6-1.5-11.3-5.4l0,0c-4.6-4.7-9.4-6.9-14.4-6.6c-7.9,0.6-13,7.7-13.2,8l3.1,2.2   C26.6,49.3,30.8,43.5,37,43z" display="inline"/>
            <path fill="#4b4b4b" d="M37,53.5c3.8-0.3,7.6,1.6,11.3,5.4l0,0c4.6,4.7,9.4,7,14.4,6.6c7.9-0.6,13-7.7,13.2-8   l-3.1-2.2c0,0.1-4.3,5.9-10.5,6.4c-3.8,0.3-7.6-1.5-11.3-5.4l0,0c-4.6-4.7-9.4-7-14.4-6.6c-7.9,0.6-13,7.7-13.2,8l3.1,2.2   C26.6,59.8,30.8,54,37,53.5z" display="inline"/>
        </g>
        <g display="none">
            <path fill="#4b4b4b" d="M49,30.6c2.6,0,5.2,0.6,7.4,1.6V4.9H41.5v27.3C43.8,31.2,46.3,30.6,49,30.6z" display="inline"/>
            <path fill="#4b4b4b" d="M49,69.3c-2.6,0-5.2-0.6-7.4-1.6V95h14.9V67.7C54.2,68.7,51.7,69.3,49,69.3z" display="inline"/>
            <path fill="#4b4b4b" d="M66.8,47.1C66.8,47.1,66.8,47.1,66.8,47.1c-1.3-8.6-8.7-15.2-17.7-15.2   c-9.9,0-17.9,8-17.9,17.9c0,9.9,8,17.9,17.9,17.9c8.9,0,16.2-6.5,17.6-15c0,0,0,0,0,0c1.1,0,2-0.9,2-2v-1.7   C68.7,48,67.9,47.1,66.8,47.1z M49.1,65C40.8,65,34,58.2,34,49.9c0-8.3,6.8-15.1,15.1-15.1c8.3,0,15.1,6.8,15.1,15.1   C64.2,58.2,57.4,65,49.1,65z" display="inline"/>
            <g display="inline">
                <polygon fill="#4b4b4b" points="48.7,59 47.8,58.2 47.5,58.5 48.7,59.6 48.7,59.6 48.7,59.6 50.5,57.8 50.3,57.5   "/>
                <path fill="#4b4b4b" d="M49,64c7.7,0,14-6.3,14-14s-6.3-14-14-14c-7.7,0-14,6.3-14,14S41.2,64,49,64z M49,61.2    c-1.5,0-2.7-1.2-2.7-2.7c0-1.5,1.2-2.7,2.7-2.7c1.5,0,2.7,1.2,2.7,2.7C51.7,60,50.5,61.2,49,61.2z M40,53.2v-1.8h11.1v1.8H40z     M39.9,42.1h12.4v1.8H39.9V42.1z M39.9,45.3h12.4v1.8H39.9V45.3z M39.9,48.4h18.4v1.8H39.9V48.4z"/>
            </g>
        </g>
        <g>
            <path fill="#4b4b4b" d="M84.1,39H51.4c-1-0.9-3.1-3-3.3-5.8C48,31,49,28.7,51.4,26.5l0,0c2.8-2.7,4.1-5.6,3.9-8.6   c-0.4-4.7-4.6-7.8-4.8-7.9l-1.3,1.8c0,0,3.5,2.6,3.8,6.2c0.2,2.2-0.9,4.5-3.2,6.8l0,0c-2.8,2.7-4.1,5.6-3.9,8.6   c0.2,2.3,1.3,4.2,2.4,5.6H15.9C9.9,39,5,43.9,5,49.9v20.2c0,6,4.9,10.9,10.9,10.9h68.3c6,0,10.9-4.9,10.9-10.9V49.9   C95,43.9,90.1,39,84.1,39z M88.7,49.1c0.8,0,1.5,1.3,1.5,3c0,0.2,0,0.4,0,0.6v5.9c0,1-1.3,1.9-3,1.9s-3-0.8-3-1.9v-3.5h-0.7   c-0.8,0-1.5-1.3-1.5-3c0-1.6,0.7-3,1.5-3H88.7z M77.6,43.5h4.7c0.7,0,1.2,0.6,1.2,1.2c0,0.7-0.6,1.2-1.2,1.2h-4.7   c-0.7,0-1.2-0.6-1.2-1.2C76.4,44.1,76.9,43.5,77.6,43.5z M69.8,43.5h4.7c0.7,0,1.2,0.6,1.2,1.2c0,0.7-0.6,1.2-1.2,1.2h-4.7   c-0.7,0-1.2-0.6-1.2-1.2C68.5,44.1,69.1,43.5,69.8,43.5z M67.1,56h1.6c1.4,0,2.5,1.1,2.5,2.5c0,1.4-1.1,2.5-2.5,2.5h-1.6   c-1.4,0-2.5-1.1-2.5-2.5C64.6,57.1,65.7,56,67.1,56z M64.4,51.5c0-1.4,1.1-2.5,2.5-2.5h1.6c1.4,0,2.5,1.1,2.5,2.5   c0,1.4-1.1,2.5-2.5,2.5h-1.6C65.5,54,64.4,52.9,64.4,51.5z M67.2,63h1.6c1.4,0,2.5,1.1,2.5,2.5c0,1.4-1.1,2.5-2.5,2.5h-1.6   c-1.4,0-2.5-1.1-2.5-2.5C64.7,64.1,65.8,63,67.2,63z M61.6,43.5h4.7c0.7,0,1.2,0.6,1.2,1.2c0,0.7-0.6,1.2-1.2,1.2h-4.7   c-0.7,0-1.2-0.6-1.2-1.2C60.4,44.1,60.9,43.5,61.6,43.5z M59.4,56H61c1.4,0,2.5,1.1,2.5,2.5c0,1.4-1.1,2.5-2.5,2.5h-1.6   c-1.4,0-2.5-1.1-2.5-2.5C56.9,57.1,58,56,59.4,56z M56.7,51.5c0-1.4,1.1-2.5,2.5-2.5h1.6c1.4,0,2.5,1.1,2.5,2.5   c0,1.4-1.1,2.5-2.5,2.5h-1.6C57.8,54,56.7,52.9,56.7,51.5z M53.4,43.5h4.7c0.7,0,1.2,0.6,1.2,1.2c0,0.7-0.6,1.2-1.2,1.2h-4.7   c-0.7,0-1.2-0.6-1.2-1.2C52.1,44.1,52.7,43.5,53.4,43.5z M52,56h1.6c1.4,0,2.5,1.1,2.5,2.5c0,1.4-1.1,2.5-2.5,2.5H52   c-1.4,0-2.5-1.1-2.5-2.5C49.5,57.1,50.6,56,52,56z M49.3,51.5c0-1.4,1.1-2.5,2.5-2.5h1.6c1.4,0,2.5,1.1,2.5,2.5   c0,1.4-1.1,2.5-2.5,2.5h-1.6C50.4,54,49.3,52.9,49.3,51.5z M52.1,63h1.6c1.4,0,2.5,1.1,2.5,2.5c0,1.4-1.1,2.5-2.5,2.5h-1.6   c-1.4,0-2.5-1.1-2.5-2.5C49.6,64.1,50.7,63,52.1,63z M45.2,43.5h4.7c0.7,0,1.2,0.6,1.2,1.2c0,0.7-0.6,1.2-1.2,1.2h-4.7   c-0.7,0-1.2-0.6-1.2-1.2C44,44.1,44.5,43.5,45.2,43.5z M44.3,56h1.6c1.4,0,2.5,1.1,2.5,2.5c0,1.4-1.1,2.5-2.5,2.5h-1.6   c-1.4,0-2.5-1.1-2.5-2.5C41.8,57.1,42.9,56,44.3,56z M41.5,51.5c0-1.4,1.1-2.5,2.5-2.5h1.6c1.4,0,2.5,1.1,2.5,2.5   c0,1.4-1.1,2.5-2.5,2.5H44C42.7,54,41.5,52.9,41.5,51.5z M44.3,63h1.6c1.4,0,2.5,1.1,2.5,2.5c0,1.4-1.1,2.5-2.5,2.5h-1.6   c-1.4,0-2.5-1.1-2.5-2.5C41.8,64.1,42.9,63,44.3,63z M37,43.5h4.7c0.7,0,1.2,0.6,1.2,1.2c0,0.7-0.6,1.2-1.2,1.2H37   c-0.7,0-1.2-0.6-1.2-1.2C35.7,44.1,36.3,43.5,37,43.5z M36.1,56h1.6c1.4,0,2.5,1.1,2.5,2.5c0,1.4-1.1,2.5-2.5,2.5h-1.6   c-1.4,0-2.5-1.1-2.5-2.5C33.6,57.1,34.7,56,36.1,56z M33.4,51.5c0-1.4,1.1-2.5,2.5-2.5h1.6c1.4,0,2.5,1.1,2.5,2.5   c0,1.4-1.1,2.5-2.5,2.5h-1.6C34.5,54,33.4,52.9,33.4,51.5z M36.2,63h1.6c1.4,0,2.5,1.1,2.5,2.5c0,1.4-1.1,2.5-2.5,2.5h-1.6   c-1.4,0-2.5-1.1-2.5-2.5C33.7,64.1,34.8,63,36.2,63z M28.8,43.5h4.7c0.7,0,1.2,0.6,1.2,1.2c0,0.7-0.6,1.2-1.2,1.2h-4.7   c-0.7,0-1.2-0.6-1.2-1.2C27.5,44.1,28.1,43.5,28.8,43.5z M20.6,43.5h4.7c0.7,0,1.2,0.6,1.2,1.2c0,0.7-0.6,1.2-1.2,1.2h-4.7   c-0.7,0-1.2-0.6-1.2-1.2C19.3,44.1,19.9,43.5,20.6,43.5z M21.1,63h1.6c1.4,0,2.5,1.1,2.5,2.5c0,1.4-1.1,2.5-2.5,2.5h-1.6   c-1.4,0-2.5-1.1-2.5-2.5C18.6,64.1,19.7,63,21.1,63z M18.5,58.5c0-1.4,1.1-2.5,2.5-2.5h1.6c1.4,0,2.5,1.1,2.5,2.5   c0,1.4-1.1,2.5-2.5,2.5H21C19.6,61,18.5,59.8,18.5,58.5z M20.8,49h1.6c1.4,0,2.5,1.1,2.5,2.5c0,1.4-1.1,2.5-2.5,2.5h-1.6   c-1.4,0-2.5-1.1-2.5-2.5C18.3,50.2,19.4,49,20.8,49z M12.4,43.5h4.7c0.7,0,1.2,0.6,1.2,1.2c0,0.7-0.6,1.2-1.2,1.2h-4.7   c-0.7,0-1.2-0.6-1.2-1.2C11.2,44.1,11.7,43.5,12.4,43.5z M13,49h1.6c1.4,0,2.5,1.1,2.5,2.5c0,1.4-1.1,2.5-2.5,2.5H13   c-1.4,0-2.5-1.1-2.5-2.5C10.5,50.2,11.7,49,13,49z M17.4,58.5c0,1.4-1.1,2.5-2.5,2.5h-1.6c-1.4,0-2.5-1.1-2.5-2.5   c0-1.4,1.1-2.5,2.5-2.5h1.6C16.3,56,17.4,57.1,17.4,58.5z M14.5,77.3H13c-1.3,0-2.4-1.3-2.4-2.9s1.1-2.9,2.4-2.9h1.5   c1.3,0,2.4,1.3,2.4,2.9S15.8,77.3,14.5,77.3z M14.9,68h-1.6c-1.4,0-2.5-1.1-2.5-2.5c0-1.4,1.1-2.5,2.5-2.5h1.6   c1.4,0,2.5,1.1,2.5,2.5C17.4,66.9,16.3,68,14.9,68z M22.5,77.3h-1.8c-1.6,0-2.9-1.3-2.9-2.9s1.3-2.9,2.9-2.9h1.8   c1.6,0,2.9,1.3,2.9,2.9S24.1,77.3,22.5,77.3z M28.2,49h1.6c1.4,0,2.5,1.1,2.5,2.5c0,1.4-1.1,2.5-2.5,2.5h-1.6   c-1.4,0-2.5-1.1-2.5-2.5C25.7,50.2,26.8,49,28.2,49z M28.4,56H30c1.4,0,2.5,1.1,2.5,2.5c0,1.4-1.1,2.5-2.5,2.5h-1.6   c-1.4,0-2.5-1.1-2.5-2.5C25.9,57.1,27,56,28.4,56z M25.9,65.5c0-1.4,1.1-2.5,2.5-2.5h1.6c1.4,0,2.5,1.1,2.5,2.5   c0,1.4-1.1,2.5-2.5,2.5h-1.6C27.1,68,25.9,66.9,25.9,65.5z M60.5,77.2H29.5c-1.2,0-2.2-1.3-2.2-2.8s1-2.8,2.2-2.8h31.1   c1.2,0,2.2,1.3,2.2,2.8S61.8,77.2,60.5,77.2z M61.1,68h-1.6c-1.4,0-2.5-1.1-2.5-2.5c0-1.4,1.1-2.5,2.5-2.5h1.6   c1.4,0,2.5,1.1,2.5,2.5C63.6,66.9,62.4,68,61.1,68z M68.7,77.3H67c-1.6,0-2.9-1.3-2.9-2.9s1.3-2.9,2.9-2.9h1.8   c1.6,0,2.9,1.3,2.9,2.9S70.3,77.3,68.7,77.3z M74.7,49h1.6c1.4,0,2.5,1.1,2.5,2.5c0,1.4-1.1,2.5-2.5,2.5h-1.6   c-1.4,0-2.5-1.1-2.5-2.5C72.2,50.2,73.3,49,74.7,49z M74.9,56h1.6c1.4,0,2.5,1.1,2.5,2.5c0,1.4-1.1,2.5-2.5,2.5h-1.6   c-1.4,0-2.5-1.1-2.5-2.5C72.4,57.1,73.5,56,74.9,56z M76.9,76.9h-2.2c-0.6,0-1.1-0.5-1.1-1.1s0.5-1.1,1.1-1.1h2.2   c0.6,0,1.1,0.5,1.1,1.1S77.5,76.9,76.9,76.9z M76.6,68h-1.6c-1.4,0-2.5-1.1-2.5-2.5c0-1.4,1.1-2.5,2.5-2.5h1.6   c1.4,0,2.5,1.1,2.5,2.5C79.1,66.9,77.9,68,76.6,68z M82.4,76.9h-2.2c-0.6,0-1.1-0.5-1.1-1.1s0.5-1.1,1.1-1.1h2.2   c0.6,0,1.1,0.5,1.1,1.1S83,76.9,82.4,76.9z M82.4,74.1h-2.2c-0.6,0-1.1-0.5-1.1-1.1s0.5-1.1,1.1-1.1h2.2c0.6,0,1.1,0.5,1.1,1.1   S83,74.1,82.4,74.1z M87.8,76.9h-2.2c-0.6,0-1.1-0.5-1.1-1.1s0.5-1.1,1.1-1.1h2.2c0.6,0,1.1,0.5,1.1,1.1S88.4,76.9,87.8,76.9z    M90,68h-7.3c-1.1,0-2-1.1-2-2.6s0.9-2.6,2-2.6H90c1.1,0,2,1.1,2,2.6S91.1,68,90,68z"/>
        </g>
        <g display="none">
            <path fill="#4b4b4b" d="M73.9,5H14.7v90h69.8V15.7L73.9,5z M21,20.8h49.7v2.8H21V20.8z M21,26.7h49.7v2.8H21V26.7   z M21,44h44.9v2.8H21V44z M21,49.8h44.9v2.8H21V49.8z M21,55.7h39v2.8H21V55.7z M21,61.5h39v2.8H21V61.5z M69.1,76H21v-2.8h48.1V76   z M69.1,70.2H21v-2.8h48.1V70.2z M78.3,40.8H21V38h57.3V40.8z M78.3,35H21v-2.8h57.3V35z" display="inline"/>
        </g>
        <g display="none">
            <path fill="#4b4b4b" d="M74.6,5H15.4v90h69.8V15.7L74.6,5z M76.1,26.9V28H59.6v-1.1H76.1z M59.6,32.4v-1.1h16.5   v1.1H59.6z M76.1,33.4v1.1H59.6v-1.1H76.1z M59.6,30.1V29h16.5v1.1H59.6z M23,14.2h46.5v2H23V14.2z M23,18.9h46.5v2H23V18.9z    M41.3,32.4v-1.1h16.5v1.1H41.3z M57.9,33.4v1.1H41.3v-1.1H57.9z M41.3,30.1V29h16.5v1.1H41.3z M41.3,28v-1.1h16.5V28H41.3z    M23,26.9h16.5V28H23V26.9z M23,29h16.5v1.1H23V29z M23,31.3h16.5v1.1H23V31.3z M23,33.4h16.5v1.1H23V33.4z M22.8,40.9h1v19.3H27   v-9.7h5.1v9.7h1.6V47.9h5.1v12.4h1.5V42.4h5.1v17.9h1.6V42.4h5.1v17.9h1.5V47.9h5.1v12.4h1.6v-9.7h5.1v9.7h1.5v-7.4h5.1v7.4h6.3v1   H23.8h-1h0V40.9z M29.7,85.8c-4.2,0-7.6-3.4-7.6-7.6s3.4-7.6,7.6-7.6c0,0,0,0,0,0v7.6h7.5C37.3,82.5,33.9,85.8,29.7,85.8z    M79.2,80.1l-2-3.4L76.6,84L72.7,79l-5.5-2c-0.2,0.2-0.4,0.3-0.7,0.3c0,0-0.1,0-0.1,0L62,81.7l-2.1-5.6c-0.1,0-0.3,0-0.4-0.1   l-5,4.4l-5.6-4.3c-0.1,0.1-0.3,0.2-0.5,0.2c-0.2,0-0.3-0.1-0.4-0.1l-5.7,6.4l-0.4-0.3l5.7-6.4c-0.1-0.1-0.1-0.3-0.1-0.5   c0-0.5,0.4-0.9,0.9-0.9c0.5,0,0.9,0.4,0.9,0.9c0,0.1,0,0.3-0.1,0.4l5.2,4l4.6-4.1C59,75.6,59,75.4,59,75.2c0-0.5,0.4-0.9,0.9-0.9   s0.9,0.4,0.9,0.9c0,0.3-0.2,0.6-0.5,0.8l1.8,4.8l3.7-3.8c-0.2-0.2-0.3-0.4-0.3-0.7c0-0.5,0.4-0.9,0.9-0.9s0.9,0.4,0.9,0.9   c0,0.1,0,0.1,0,0.2l5.6,2l3.1,4.2l0.5-6.2c-0.4-0.1-0.6-0.5-0.6-0.9c0-0.5,0.4-0.9,0.9-0.9s0.9,0.4,0.9,0.9c0,0.3-0.1,0.5-0.4,0.7   l2,3.5L79.2,80.1z" display="inline"/>
        </g>
        <g display="none">
            <path fill="#4b4b4b" d="M83.6,48.4c0.8-2.3,1.3-4.8,1.3-7.4c0-12.3-10-22.3-22.3-22.3c-7.8,0-14.6,4-18.6,10   c-2.8-1.9-6.2-2.9-9.9-2.9c-10,0-18.1,8.1-18.1,18.1c0,1.5,0.2,3,0.6,4.5C9.9,49,4.8,54.5,4.8,61.1c0,7.1,5.7,12.8,12.8,12.8h64.5   c7.1,0,12.8-5.7,12.8-12.8C95,54.5,90,49.1,83.6,48.4z M42.7,44.9l7,7l7-7l1.9,1.9l-7,7l0,0l-1.9,1.9l0,0l0,0l-1.9-1.9l0,0l-7-7   L42.7,44.9z M49.8,61.4L49.8,61.4L49.8,61.4l-8.9-8.9l1.9-1.9l7,7l7-7l1.9,1.9L49.8,61.4z" display="inline"/>
        </g>
        <g display="none">
            <polygon fill="#4b4b4b" points="52.4,95.3 42.9,57 4.6,47.5 94.8,5.2  " display="inline"/>
        </g>
        <g display="none">
            <path fill="#4b4b4b" d="M5.2,23.8v15.9h90V23.8H5.2z M56.8,35.6H8.4v-8.1h48.4V35.6z M85.6,36   c-2.3,0-4.2-1.9-4.2-4.2s1.9-4.2,4.2-4.2s4.2,1.9,4.2,4.2S87.9,36,85.6,36z" display="inline"/>
            <path fill="#4b4b4b" d="M5.2,43.6v15.9h90V43.6H5.2z M56.8,55.4H8.4v-8.1h48.4V55.4z M85.6,55.8   c-2.3,0-4.2-1.9-4.2-4.2s1.9-4.2,4.2-4.2s4.2,1.9,4.2,4.2S87.9,55.8,85.6,55.8z" display="inline"/>
            <path fill="#4b4b4b" d="M5.2,63.1v15.9h90V63.1H5.2z M56.8,74.9H8.4v-8.1h48.4V74.9z M85.6,75.2   c-2.3,0-4.2-1.9-4.2-4.2s1.9-4.2,4.2-4.2s4.2,1.9,4.2,4.2S87.9,75.2,85.6,75.2z" display="inline"/>
        </g>
        <g display="none">
            <polygon fill="#4b4b4b" points="65.6,36.2 34.3,36.2 32.3,26.4 67.6,26.4  " display="inline"/>
            <polygon fill="#4b4b4b" points="34.3,36.2 65.6,36.2 63.6,42.7 36.3,42.7  " display="inline"/>
            <polygon fill="#4b4b4b" points="59,50.1 41,50.1 39,42.1 61,42.1  " display="inline"/>
            <path fill="#4b4b4b" d="M43.9,28.9c0,1-0.8,1.9-1.9,1.9l0,0c-1,0-1.9-0.8-1.9-1.9V16.2c0-1,0.8-1.9,1.9-1.9l0,0   c1,0,1.9,0.8,1.9,1.9V28.9z" display="inline"/>
            <path fill="#4b4b4b" d="M59.1,28.9c0,1-0.8,1.9-1.9,1.9l0,0c-1,0-1.9-0.8-1.9-1.9V16.2c0-1,0.8-1.9,1.9-1.9l0,0   c1,0,1.9,0.8,1.9,1.9V28.9z" display="inline"/>
            <path fill="#4b4b4b" d="M43.7,76.5c-0.2-3.3,1.3-6.6,4.7-9.8l0,0c4.1-4,6-8.2,5.7-12.5   c-0.5-6.9-6.7-11.3-6.9-11.5l-1.9,2.7c0.1,0,5.2,3.7,5.5,9.1c0.2,3.3-1.3,6.6-4.7,9.8l0,0c-4.1,4-6,8.2-5.7,12.5   c0.5,6.9,6.7,11.3,6.9,11.5l1.9-2.7C49.2,85.5,44.1,81.8,43.7,76.5z" display="inline"/>
        </g>
        <g display="none">
            <g display="inline">
                <path fill="#4b4b4b" d="M70.9,83c0,6.7-6.4,12.2-14.3,12.2h-13c-7.9,0-14.3-5.4-14.3-12.2l0,0c0-6.7,6.4-12.2,14.3-12.2h13    C64.5,70.8,70.9,76.3,70.9,83L70.9,83z"/>
                <g>
                    <path fill="#4b4b4b" d="M67.1,72.1c0,9.4-7.6,17.1-17.1,17.1l0,0c-9.4,0-17.1-7.6-17.1-17.1V22.7C33,13.2,40.6,5.6,50,5.6l0,0     c9.4,0,17.1,7.6,17.1,17.1V72.1z"/>
                    <path fill="#4b4b4b" d="M50,89.8c-9.7,0-17.7-7.9-17.7-17.7V22.7C32.4,12.9,40.3,5,50,5c9.7,0,17.7,7.9,17.7,17.7v49.5     C67.7,81.9,59.8,89.8,50,89.8z M50,6.2c-9.1,0-16.5,7.4-16.5,16.5v49.5c0,9.1,7.4,16.5,16.5,16.5c9.1,0,16.5-7.4,16.5-16.5V22.7     C66.5,13.6,59.1,6.2,50,6.2z"/>
                </g>
                <path fill="#4b4b4b" d="M58.1,17.9c0,1-0.8,1.9-1.9,1.9l0,0c-1,0-1.9-0.8-1.9-1.9l0,0c0-1,0.8-1.9,1.9-1.9l0,0    C57.3,16,58.1,16.8,58.1,17.9L58.1,17.9z"/>
                <path fill="#4b4b4b" d="M58.1,23.7c0,1-0.8,1.9-1.9,1.9l0,0c-1,0-1.9-0.8-1.9-1.9l0,0c0-1,0.8-1.9,1.9-1.9l0,0    C57.3,21.8,58.1,22.7,58.1,23.7L58.1,23.7z"/>
                <path fill="#4b4b4b" d="M58.1,29.5c0,1-0.8,1.9-1.9,1.9l0,0c-1,0-1.9-0.8-1.9-1.9l0,0c0-1,0.8-1.9,1.9-1.9l0,0    C57.3,27.6,58.1,28.4,58.1,29.5L58.1,29.5z"/>
                <path fill="#4b4b4b" d="M44.4,43.7c0,0.6-0.4,1-1,1l0,0c-0.6,0-1-0.4-1-1V22.4c0-0.6,0.4-1,1-1l0,0c0.6,0,1,0.4,1,1V43.7z"/>
                <path fill="#4b4b4b" d="M55.7,76.3c0,3.2-2.6,5.8-5.8,5.8l0,0c-3.2,0-5.8-2.6-5.8-5.8l0,0c0-3.2,2.6-5.8,5.8-5.8l0,0    C53.1,70.5,55.7,73.1,55.7,76.3L55.7,76.3z"/>
                <path fill="#4b4b4b" d="M44.5,19c0,0.6-0.5,1.1-1.1,1.1l0,0c-0.6,0-1.1-0.5-1.1-1.1v-1.4c0-0.6,0.5-1.1,1.1-1.1l0,0    c0.6,0,1.1,0.5,1.1,1.1V19z"/>
                <circle cx="49.9" cy="76.3" r="3.5"/>
                <path fill="#4b4b4b" d="M50.5,75.2c0,0.3-0.3,0.6-0.6,0.6l0,0c-0.3,0-0.6-0.3-0.6-0.6v-2.8c0-0.3,0.3-0.6,0.6-0.6l0,0    c0.3,0,0.6,0.3,0.6,0.6V75.2z"/>
            </g>
        </g>
    </g>
    <g id="SvgjsG1025" fill="#4b4b4b" featurekey="text1" transform="matrix(2.82727770324936,0,0,2.82727770324936,7.17272229675064,195.29267527259373)">
        <path d="M5.7 23.52 l0 -12.54 l-4.22 0 c-0.26 0 -0.48 -0.22 -0.48 -0.5 c0 -0.26 0.22 -0.48 0.48 -0.48 l9.4 0 c0.26 0 0.48 0.22 0.48 0.48 c0 0.28 -0.22 0.5 -0.48 0.5 l-4.22 0 l0 12.54 c0 0.26 -0.22 0.48 -0.48 0.48 s-0.48 -0.22 -0.48 -0.48 z M18.880000000000003 23.52 l0 -6.24 l-4.7 -6.42 c-0.14 -0.22 -0.1 -0.54 0.1 -0.68 c0.22 -0.18 0.54 -0.14 0.68 0.08 l4.38 6.02 l4.4 -6.02 c0.14 -0.22 0.46 -0.26 0.68 -0.08 c0.22 0.14 0.26 0.46 0.1 0.68 l-4.68 6.38 l0 6.28 c0 0.26 -0.2 0.48 -0.48 0.48 c-0.26 0 -0.48 -0.22 -0.48 -0.48 z M27.119999999999997 23.52 l0 -13.04 c0 -0.26 0.22 -0.48 0.48 -0.48 l0.06 0 l3.9 0 c2.2 0 3.98 1.8 3.98 4 s-1.78 3.98 -3.98 3.98 l-3.46 0.04 l0 5.5 c0 0.26 -0.22 0.48 -0.5 0.48 c-0.26 0 -0.48 -0.22 -0.48 -0.48 z M28.099999999999998 17.04 l3.46 0 c1.66 -0.02 3.02 -1.38 3.02 -3.04 s-1.36 -3.02 -3.02 -3.02 l-3.46 0 l0 6.06 z M38.92 23.52 l0 -13.04 c0 -0.26 0.22 -0.48 0.48 -0.48 l0 0 c0.28 0 0.5 0.22 0.5 0.48 l0 0 l0 13.04 c0 0.26 -0.22 0.48 -0.5 0.48 l0 0 c-0.26 0 -0.48 -0.22 -0.48 -0.48 l0 0 z M54.300000000000004 23.74 l-8.4 -11.68 l0 11.46 c0 0.26 -0.22 0.48 -0.48 0.48 s-0.48 -0.22 -0.48 -0.48 l0 -12.84 c-0.06 -0.2 0 -0.4 0.18 -0.54 c0.22 -0.14 0.54 -0.1 0.68 0.12 l8.48 11.76 l0 -11.4 c0 -0.26 0.22 -0.48 0.48 -0.48 c0.28 0 0.5 0.22 0.5 0.48 l0 12.9 c0 0.26 -0.22 0.48 -0.5 0.48 c-0.16 0 -0.28 -0.06 -0.38 -0.18 c-0.02 -0.02 -0.06 -0.04 -0.08 -0.08 z M70.66000000000001 17.7 l-3.82 0 c-0.28 0 -0.5 -0.2 -0.5 -0.48 s0.22 -0.5 0.5 -0.5 l4.32 0 l0.06 0 c0.24 0.02 0.44 0.24 0.44 0.5 l0 4.8 l0 0.08 c-0.02 0.14 -0.08 0.28 -0.18 0.36 c-1.24 0.98 -2.8 1.54 -4.52 1.54 c-4.02 -0.02 -7.28 -3.16 -7.28 -7.12 c0 -3.9 3.26 -7.08 7.28 -7.08 c1.74 0 3.28 0.6 4.54 1.58 c0.18 0.14 0.24 0.48 0.06 0.68 c-0.16 0.2 -0.46 0.24 -0.7 0.08 c-1.02 -0.84 -2.4 -1.36 -3.9 -1.36 c-3.5 0 -6.3 2.74 -6.3 6.1 c0 3.4 2.8 6.14 6.3 6.14 c1.36 0 2.66 -0.44 3.7 -1.2 l0 -4.12 z"/>
    </g>
    <g id="SvgjsG1026" fill="#4b4b4b" featurekey="text2" transform="matrix(2.432469955660775,0,0,2.432469955660775,4.940462677808317,249.1617962903517)">
        <path d="M5.18 24 l-2.58 0 l-0.08 0 c-0.24 -0.02 -0.44 -0.22 -0.44 -0.48 l0 -13.04 c0 -0.26 0.22 -0.48 0.48 -0.48 l0.06 0 l2.56 0 c3.86 0 7 3.16 7 7.02 s-3.14 6.98 -7 6.98 z M3.06 23.02 l2.12 0 c3.32 0 6.02 -2.68 6.02 -6 c0 -3.34 -2.7 -6.02 -6.02 -6.04 l-2.12 0 l0 12.04 z M21.3 23.96 c-0.12 -0.04 -0.2 -0.12 -0.24 -0.24 c-0.02 0 -0.02 -0.02 -0.02 -0.04 l-0.02 -0.02 l-5.42 -12.9 c-0.1 -0.24 0.02 -0.54 0.26 -0.64 c0.24 -0.12 0.54 0 0.64 0.24 l5 11.92 l5.02 -11.92 c0.08 -0.24 0.38 -0.36 0.62 -0.24 c0.24 0.1 0.36 0.4 0.26 0.64 l-5.42 12.8 c-0.02 0.18 -0.12 0.34 -0.28 0.4 l-0.02 0 c-0.06 0.02 -0.12 0.04 -0.18 0.04 s-0.14 0 -0.18 -0.02 c-0.02 0 -0.02 -0.02 -0.02 -0.02 z M30.840000000000003 16.9 c0.02 -3.92 2.98 -7.1 6.76 -7.1 l0 0 c3.74 0 6.68 3.18 6.7 7.1 l0 0 c-0.02 3.92 -2.96 7.1 -6.7 7.1 l0 0 c-3.78 0 -6.74 -3.18 -6.76 -7.1 l0 0 z M31.820000000000004 16.9 c0 3.42 2.6 6.12 5.78 6.12 l0 0 c3.08 0 5.68 -2.7 5.7 -6.12 l0 0 c-0.02 -3.46 -2.62 -6.1 -5.7 -6.1 l0 0 c-3.18 0 -5.78 2.64 -5.78 6.1 l0 0 z M55.800000000000004 23.14 c-0.24 -0.46 -0.38 -1.12 -0.38 -2.3 c0 -1.02 -0.52 -1.66 -1.14 -2.12 c-0.62 -0.44 -1.36 -0.66 -1.62 -0.7 c-0.06 -0.02 -0.08 -0.04 -0.1 -0.04 l-3.4 0 l0 5.54 c0 0.26 -0.22 0.48 -0.5 0.48 c-0.26 0 -0.48 -0.22 -0.48 -0.48 l0 -13.04 c0 -0.24 0.2 -0.46 0.44 -0.48 l0.04 0 l0.06 0 l3.9 0 c2.2 0 3.98 1.78 3.98 4 c0 1.6 -0.94 2.98 -2.3 3.62 c0.06 0.04 0.12 0.06 0.2 0.1 c0.92 0.52 1.88 1.54 1.88 3.12 c0 0.82 0.08 1.32 0.18 1.62 c0.08 0.24 0.18 0.32 0.2 0.34 c0.22 -0.02 0.46 0.1 0.54 0.32 c0.06 0.26 -0.06 0.54 -0.32 0.64 c-0.02 0 -0.12 0.02 -0.24 0.02 l-0.04 0 c-0.26 0 -0.68 -0.2 -0.9 -0.64 z M55.64 14 c0 -1.68 -1.36 -3.02 -3.02 -3.02 l-3.46 0 l0 6.04 l3.36 0 l0.18 0 c1.62 -0.04 2.94 -1.38 2.94 -3.02 z M69.86 23.68 l-1.24 -3.3 l-6.38 0 l-1.24 3.3 c-0.08 0.2 -0.26 0.32 -0.46 0.32 c-0.04 0 -0.12 -0.02 -0.18 -0.02 c-0.24 -0.1 -0.38 -0.4 -0.28 -0.64 l4.86 -12.98 c0.08 -0.18 0.28 -0.3 0.48 -0.3 c0.22 0 0.42 0.12 0.48 0.3 l4.86 12.98 c0.1 0.24 -0.02 0.54 -0.26 0.64 c-0.08 0 -0.12 0.02 -0.18 0.02 c-0.18 0 -0.38 -0.12 -0.46 -0.32 z M65.44 11.88 l-2.84 7.52 l5.66 0 z M73.88 23.52 l0 -12.98 c0 -0.28 0.22 -0.5 0.48 -0.5 c0.28 0 0.5 0.22 0.5 0.5 l0 8.1 l8.46 -8.46 c0.2 -0.18 0.52 -0.18 0.68 0 c0.2 0.18 0.2 0.5 0 0.7 l-5.36 5.36 l5.48 6.96 c0.16 0.22 0.12 0.5 -0.08 0.7 c-0.1 0.08 -0.2 0.1 -0.32 0.1 c-0.14 0 -0.26 -0.04 -0.36 -0.18 l-5.42 -6.88 l-3.08 3.08 l0 3.5 c0 0.26 -0.22 0.48 -0.5 0.48 c-0.26 0 -0.48 -0.22 -0.48 -0.48 z"/>
    </g>
    <g id="SvgjsG1027" fill="#4b4b4b" featurekey="text3" transform="matrix(1.2489794096320106,0,0,1.2489794096320106,9.389998478252327,310.6077943312532)">
        <path d="M11.084 10.019375 l0 1.4648 l-4.3945 0 l0 12.5 l-1.8066 0 l0 -12.5 l-4.3945 0 l0 -1.4648 l10.596 0 z M11.816405625 10.019375 l2.002 0 l4.0234 7.2949 l4.082 -7.2949 l2.0996 0 l-5.332 9.082 l0 4.8828 l-1.8066 0 l0 -4.8828 z M25.927778125 23.984375 l0 -13.965 l5.6641 0 q4.27734375 0 4.27734375 3.740234375 q0 4.072265625 -5.849609375 4.970703125 l-0.37109 -1.5234 q4.296875 -0.634765625 4.296875 -3.369140625 q0 -2.32421875 -2.51953125 -2.32421875 l-3.6914 0 l0 12.471 l-1.8066 0 z M47.3925625 10.019375 l0 1.4648 l-7.3242 0 l0 4.6875 l6.9824 0 l0 1.4648 l-6.9824 0 l0 4.8828 l7.4707 0 l0 1.4648 l-9.2773 0 l0 -13.965 l9.1309 0 z  M56.96289375 10.019375 l0 12.5 l7.3047 0 l0 1.4648 l-9.1113 0 l0 -13.965 l1.8066 0 z M68.515659375 10.019375 l0 13.965 l-1.8066 0 l0 -13.965 l1.8066 0 z M73.93555 10.019375 l0 13.965 l-1.8066 0 l0 -13.965 l1.8066 0 z M83.75975 10.019375 l-6.2891 6.5918 l6.4258 7.373 l-2.5098 0 l-5.6934 -6.7188 l0 -1.0938 l5.7813 -6.1523 l2.2852 0 z M94.931625 10.019375 l0 1.4648 l-7.3242 0 l0 4.6875 l6.9824 0 l0 1.4648 l-6.9824 0 l0 4.8828 l7.4707 0 l0 1.4648 l-9.2773 0 l0 -13.965 l9.1309 0 z  M103.15425625 23.984375 l-1.875 0 l5.9277 -13.965 l2.002 0 l5.957 13.965 l-2.002 0 l-1.8066 -4.3945 l-4.6191 0 l0.49805 -1.4648 l3.5156 0 l-2.6074 -6.3281 z  M121.95316875 23.984375 l0 -13.965 l5.6641 0 q4.27734375 0 4.27734375 3.740234375 q0 4.072265625 -5.849609375 4.970703125 l-0.37109 -1.5234 q4.296875 -0.634765625 4.296875 -3.369140625 q0 -2.32421875 -2.51953125 -2.32421875 l-3.6914 0 l0 12.471 l-1.8066 0 z M134.287153125 23.984375 l0 -13.965 l5.957 0 q3.984375 0 3.984375 3.349609375 q0 2.724609375 -3.896484375 4.033203125 l4.7949 6.582 l-2.3828 0 l-4.4434 -6.2793 l0 -1.1816 q4.00390625 -0.634765625 4.00390625 -3.076171875 q0 -1.93359375 -2.2265625 -1.93359375 l-3.9844 0 l0 12.471 l-1.8066 0 z M153.55469375 22.617175 q5 0 5 -5.654296875 q0 -5.576171875 -5 -5.576171875 q-5.107421875 0 -5.107421875 5.576171875 q0 5.654296875 5.107421875 5.654296875 z M146.54299375 17.021475 q0 -7.099609375 7.01171875 -7.099609375 q6.904296875 0 6.904296875 7.099609375 q0 7.060546875 -6.904296875 7.060546875 q-7.01171875 0 -7.01171875 -7.060546875 z"/>
    </g>
</svg>
